<svg height="431" viewBox="0 0 433 431" width="433" xmlns="http://www.w3.org/2000/svg"><path d="m1165.96253 819.243932c-2.99058 2.816018-8.43673 6.595515-12.74165 4.876791-2.16226-.862953-4.009-2.757923-5.97855-3.979895-2.31381-1.436078-4.48913-2.872809-6.45085-4.78671-3.91362-3.819968-6.87676-9.400437-11.49916-12.390744-1.55343-1.005254-4.58582-1.220666-5.66369-2.82581-.48275-.719997-.52782-1.812069-.43898-2.644342.19336-1.792487 1.16213-1.686739-.45662-3.002709h2.51436c.04834-.970658-.92108-1.050948-1.64358-.925617.33577-1.538562.67808-7.558994-2.12829-4.830445-2.4327 2.364959-1.2157 6.288717-2.93832 8.850158-1.31891 1.961552-4.81903.37338-5.29133-1.784654-.2123-.969352.85641-2.483109.9838-3.433532.27959-2.107771-.6624-3.930285-2.03031-5.52629-3.00103 1.998107-1.29996 6.133359-3.01017 8.758771-1.54755 2.375404-4.9941 1.267013-7.35038.849245-2.82465-.501322-6.01839.005875-8.72089-.660596-4.08086-1.00656-2.55682-5.793923-2.96053-8.884102-.43311-3.31016-3.78102-7.904305-2.77501-11.243839 1.08048-3.585626 7.39675-4.360456 10.41608-5.230589 6.90028-1.988968 16.74281-2.371487 21.87278-7.939554 4.08021 4.547146 7.36214 9.753582 11.64158 14.13101 4.6224 4.727961 9.55967 9.092986 13.9972 14.011553 4.61848 5.118966 9.3859 10.139365 13.8365 15.406508 1.94211 2.297725 3.64709 4.773654 5.65584 7.016547 1.78599 1.993538 3.66865 3.827802 1.16017 6.188845m-205.096475-88.431736c2.120451-1.126669 2.390244-.420379 2.389593 1.900192-.610138-1.114266-1.215702-1.412578-2.389593-1.900192m-17.977452 45.109826v-4.090211c2.04402-.053527.787166 3.445282 0 4.090211m-.499737 6.091583c0-1.811417-.048994-3.536016.473606-5.297823.274366 1.919775.798273 3.581709-.473606 5.297823m8.788832 124.430952c1.877442.175593 4.770688-1.116877 6.349594.355103 1.622021 1.512451 1.492024 5.914684 1.876136 7.957831.634959 3.376742 1.197408 6.764581 1.73242 10.157642.350795 2.224616.784554 4.483828-1.73242 5.335031-3.719609 1.257221-9.034454-.537224-12.911496-.700415-7.658708-.321812-15.314151-.769607-22.979392-.924965-7.429417-.150135-14.875819-.031332-22.271268.740886-3.340723.348575-6.607628.964784-9.914382 1.522243-1.742872.294396-6.41296 1.524854-7.987293.05679-2.961838-2.763797 1.962364-9.216358 4.080202-11.038872 3.930608-3.381964 9.520472-5.820685 14.449247-7.289402 2.633906-.785273 7.025056-2.989653 9.099779-.524168 1.591971 1.891054 1.528606 4.415287 3.809757 5.848102 5.285449 3.319951 2.192962-6.203205-1.109873-7.375567 2.217785-5.186854 6.444969 2.136492 8.198294 3.895688.623854.626 2.65285 2.690036 3.534085 1.652143.659783-.776788-.657824-3.560169-.902139-4.317373-.371047-1.150168-1.309768-2.899573-1.039975-4.147003.488631-2.257253 3.656896-2.872156 5.554589-3.060152 2.942893-.291132 5.829607.641014 8.739184.952381 4.461701.477823 8.958024.485003 13.424951.904077m-29.547825-212.612027c-5.809357.462156-11.655295-.425601-17.450933.300924-5.483385.688012-10.650596 2.699827-15.819767 4.547798 7.684839-18.010379 17.627311-34.405822 29.74576-49.764678 6.034728-7.649727 12.525425-15.246581 19.046171-22.486373 3.034348-3.368256 6.172563-6.62489 9.305553-9.898496 2.794605-2.92046 4.796818-7.880152 8.150606-10.061033 2.862543-1.861679 7.865135-.53396 11.037319-.418421 3.585692.130553 7.949405.456282 11.446255-.736316 2.533959-.864258 3.230977-3.170469.058793-3.246842-3.741166-.090734-7.420926.298965-11.211085-.051569-9.820314-.906687-19.286567-2.396945-29.186577-1.551617-2.268086.193218-5.253441 1.158654-7.479065.868828-1.600464-.209537-.548077.594666-1.660563-.688665-.425919-.490878-.939374-1.644962-1.065451-2.297073-.708777-3.662652 1.303888-8.896504 1.785333-12.583961.445517-3.412644.050954-7.163419.884502-10.486634.759077-3.02425 3.07289-3.427658 5.922368-3.750775 7.795238-.884494 15.750522-1.355136 23.581036-2.021607 17.870319-1.520937 36.308314-3.815398 54.057132-.05679 6.40904 1.357094 14.22387 3.455726 19.94896 6.816149 1.79056 1.050295 3.5968 2.287281 2.94551 4.463592-.67547 2.259212-3.98744 4.645713-5.62776 6.134012-12.12367 10.997748-23.83319 22.215477-32.349613 36.326903-10.860942 17.994712-17.093605 37.42942-20.750501 58.049544-.786514 4.436176-1.516848 6.758053-6.084375 8.034857-4.903298 1.371455-9.636098 2.262476-14.720346 2.679592-11.493289.943242-23.021853.962825-34.509262 1.878651m3.892719-119.168378c-.880582 6.550475-2.072764 13.086589-2.190349 19.688632-.044421 2.493553-.280897 3.742942-2.934401 4.299095-3.128416.655374-6.309093 1.143641-9.451881 1.82382-15.167822 3.284702-30.048868 7.318776-44.888106 11.859394-14.42181 4.413983-28.606491 9.379549-43.352313 12.649238-6.343062 1.406704-13.765294 2.354516-19.542641 5.468847-6.215025 3.351284-5.397156 8.845589-5.955032 14.880381-.745358 8.062926-3.138215 15.869969-3.979601 23.929632-.402403 3.8513-.768876 7.725447-.708124 11.6009.051607 3.303633.525213 6.956494-1.697145 9.73661-4.458434-5.955808-6.571699-13.446914-7.450321-20.74676-.427226-3.548419-.258034-7.125559-.380192-10.690297-.098641-2.870198-.034622-7.435621-1.905531-9.832566-4.067138-5.209047-9.356507 15.666308-9.85951 17.895493-.845959 3.75208-1.543631 7.535494-2.386324 11.288227-.373659 1.66324-.853145 7.709781-3.083342 8.312282-4.621747 1.249388-3.607249-11.72819-3.680413-13.704103-.146328-3.988381-.245622-7.981331-.152207-11.972975.067938-2.881295.625814-6.008029.294616-8.89063-.813297-7.077907-4.796165.379255-5.915837 3.013806-2.829227 6.651-4.108945 13.770032-6.64617 20.527432-.422 1.124058-1.413634 4.908124-2.984701 4.978622-1.748099.077679-1.73438-3.830412-1.834328-4.972094-.580086-6.618362-2.539184-13.190378-1.947992-19.87728.59707-6.752179 2.965757-13.693659 6.317585-19.566566 7.086461-12.416854 19.883637-19.546329 32.141229-26.040666 14.027901-7.431052 28.837742-13.302001 43.963756-18.084794 18.191719-5.752146 36.870763-10.406345 55.662166-13.718463 9.560321-1.684781 19.268276-2.889781 28.926584-3.85587 3.394289-.339437 6.789885-.537877 10.140407-1.183459 1.264693-.244133 5.827647-1.404093 5.480118 1.184112m9.771974-21.198472c-4.792899.03786-9.689011-2.284017-14.358445-3.243579-5.559162-1.14364-10.988326-2.798394-16.537689-3.992297-10.866822-2.337544-21.739522-4.616991-32.596545-7.006103-4.713202-1.03724-9.449268-1.940011-14.144179-3.054277-5.022843-1.191945-10.449395-2.52097-15.590476-1.236986-7.792625 1.946539-11.084354 10.465746-13.945591 17.114135-2.021157 4.695976-3.604636 9.930481-6.756569 14.016776-1.122285 1.456967-2.717522 3.194621-4.752398 2.722674-3.78036-.876008-3.180023-5.874865-2.698577-8.63801.697671-4.009922 1.686039-7.972845 2.477126-11.96449.318786-1.611019 2.789379-12.155096-1.621368-10.522536-3.272132 1.210875-5.003245 9.186331-6.241808 12.034987-.92043 2.11691-1.895733 4.220112-2.928522 6.284801-1.378359 2.754006-5.310926 11.956003-9.664841 10.769281-6.230703-1.698489-.254114-18.066517.807418-21.516368.582699-1.893665 6.915962-16.2551 1.570414-15.081432-2.276578.500669-4.494363 4.726003-5.655189 6.477365-2.058393 3.106499-4.110252 6.235191-6.047793 9.418062-1.993067 3.273606-3.010832 6.999576-4.987567 10.22553-1.039975 1.697836-3.162386 3.960311-5.234496 2.388459-3.230324-2.448514-1.315647-10.965763-.749932-14.186494 1.052387-5.987794 3.666695-12.126375 7.253693-17.021443 5.38997-7.355332 15.560426-9.732041 24.112781-11.160939 11.03928-1.844708 22.232073-1.340122 33.317734-.248703 12.467285 1.227847 24.744474 2.542512 37.033422 5.053037 12.384976 2.530109 24.776484 5.039982 36.97071 8.386044 5.744685 1.576422 11.571679 2.973987 17.234707 4.82457 6.020356 1.966774 11.895691 4.414635 18.083933 5.831783-2.176631 5.427723-4.353915 10.855445-6.530545 16.283821-2.083216-2.059467-4.926815-2.981168-7.819408-2.957668m106.690824 14.956754c1.9088-1.043115 4.01749-1.535298 4.71386-3.840856.61601-2.037273-.43637-4.345442-.93938-6.30112-1.4071-5.475374-1.77749-11.14723-.5324-16.687228 1.19023 1.815333 5.64539 8.797937 8.35508 4.570645 1.63443-2.549692-2.74496-6.217566-4.02337-8.010052 2.80506-1.729822 6.81144-6.372271 10.04372-3.572571 2.0891 1.810111 2.9736 3.552988 5.78846 4.432912 3.41715 1.068573 6.63441.823787 10.12407.528738 2.44316-.206273 3.03174-.532002 3.98614 1.347955.74927 1.477855 1.13665 3.306896 1.57433 4.893763.86229 3.128692 2.85928 9.293384.49451 12.224289-2.07146 2.567316-10.11036.3662-11.22676 3.680277-.60883 1.8075 2.29683 1.872123 3.40735 2.766408 1.37509 1.107086 2.5124 2.868893 3.25972 4.442704.55331 1.163876 1.39469 3.086915.4527 4.276902-1.30127 1.646268-3.71307.397532-4.76219-.798982-1.39273-1.589477-1.84478-3.762525-3.00691-5.493652-2.13287-3.176343-2.26025-.649499-2.84099 1.631255-.60295 2.369529-2.02965 2.206338-4.21477 2.510525-3.83393.534613-7.70836 1.288554-11.44038 2.31535-1.91271.526127-3.76664 1.196514-5.58855 1.97983-1.1739.503933-3.20877 2.030745-4.48261 2.045375-2.36019.026494-3.99659-3.918152-5.2149-5.563767 2.02312-1.128627 4.04036-2.267698 6.07327-3.3787m126.74954 241.537252c-5.89494-7.070726-11.00009-14.752439-16.81598-21.885178-5.73619-7.034825-12.37256-13.185809-18.81034-19.557427-3.03827-3.007278-5.94916-6.306341-9.30294-8.970919-2.50195-1.988316-4.42708-2.018996-7.43661-1.138419-8.55105 2.502693-17.25822 5.515193-25.35069 9.249649-7.53524 3.477921-14.39895 7.943471-22.57111 9.882829-8.34135 1.97983-17.01456 2.615621-25.56365 2.124743-8.76923-.50328-17.04004-2.326446-25.37943-5.006038-7.8978-2.537941-16.13268-4.754071-22.887286-9.784261-7.081235-5.273018-12.552208-12.857469-17.621431-19.990861-2.566622-3.611084-5.114298-7.403636-6.843452-11.496459-1.500517-3.551682-2.481046-7.743725-5.173744-10.638728-.660436.935409-1.482225 1.737654-1.817996 2.836254-.152861.499364.747318.483697.65521.880577-.174418.747414-1.169971 1.509841-1.748751 1.916512-2.079297 1.462189-2.091708.298312-1.546244 3.032736.31748 1.594047-.283511 5.190117-2.884754 4.015144.957665 1.145599-.563755 2.591468-1.060879 3.535363-.34165-.39231-.766916-.528738-1.275145-.410588.951133 1.893013.389337 1.943275-.532399 3.446588-.168539.274813-.764956 1.71285-.679381 1.591436-.941987 1.340775-2.030302 1.678253-2.579686 3.34802-.451396 1.371455-.33577 2.879337-.838773 4.248833-.608176-.840105-1.216353-1.680211-1.824529-2.519664.124118.660596.372353 1.638435.66109 2.237671.181603.374686.960278 1.249388.949826 1.453703-.042461.763732-.996207.580306-1.267959 1.238943-.510189 1.23568.227331 1.417801-.050954 2.623454-.318786 1.383857-1.174544.830314-1.581519 2.009857-.077084.223897.523907 1.105127.428532 1.588172-.133916.68279-.753198 1.064656-.972037 1.671725-.556569 1.544437-.354061 2.675022-1.126857 4.156141-.299188.574431-.734906.95695-.945906 1.609713-.18487.574431.212959 1.797056-.143715 2.311433-1.723275 2.479846-1.480919-1.791834-1.350269-2.851268 1.096807-8.895198 4.615868-18.075655 7.836392-26.389894 1.600464-4.130684 3.158466-8.390614 5.164599-12.347009.807417-1.593394 1.739606-3.237704 3.074196-4.456412 1.688-1.541825 4.082816-2.158686 5.611422-3.880675-.24105.27155 1.657296-1.523548 1.353535-.93345.271752-.527433-.202508-1.241555-.033969-1.752016.209693-.633832.606216-.766996 1.047814-1.321844.793699-.996116 1.736339-1.492216.489937-2.761187 1.850006-.40863 2.734507-1.008519 3.104247-2.988348.269792-1.448481-.275019-1.35383.676114-2.319267.954399-.970005 1.437804-.2128 2.039448-1.892359.719229-2.009857 1.196755-4.742974 1.6279-6.846176.376272-1.836222-.536972-4.536702 1.011885-5.833089 1.961711-1.641698 3.716995-.946506 3.365546-4.24818-.342956-3.218773.657824-5.168576 1.663829-8.214367 2.007439-6.080486 2.783501-12.500408 4.543357-18.65335 3.756844-13.130977 10.393215-24.970136 17.529326-36.528607 6.59391-10.680505 15.81258-19.780019 24.71442-28.543359 2.43728-2.400209 4.84777-4.835014 7.03616-7.466301 1.88528-2.26574 2.74627-5.350697 4.55838-7.50155 1.10073-1.306179 3.14998-1.864944 4.68708-2.557525 2.56335-1.15539 5.61795-2.66262 8.5112-2.42893-1.14972 3.872841-1.52469 8.398446 1.86829 11.302588 4.11613 3.52296 7.84685-.137081 11.62002-2.145632 6.87742-3.661346 16.71342-.300271 22.71026-5.788048 1.42865-1.306831 1.82714-3.395019 3.31132-4.615685 1.08962-.894938 2.63979-1.1221 3.86659-1.789223 3.7268-2.026829 5.53565-5.737133 4.08478-9.83583-1.3261-3.746859-3.38711-5.046509 1.20002-6.945396 3.72353-1.540521 5.13912-3.861745 3.45373-7.994387-1.60699-3.940076-4.55054-4.393746-7.336-6.972159-2.69792-2.497471.4011-5.404223 2.42225-7.278958 2.60647-2.418486 3.1049-4.598061.08297-7.113156-3.16435-2.633246-7.68158-2.541206-11.37048-1.238944-4.17166 1.47198-6.91988 3.919188-8.68497 7.884722-1.79774 4.037338-6.25356 2.910669-9.86212 1.785306-3.45112-1.075753-4.34934-3.396978-6.61547-5.896407-2.52024-2.780116-7.65675-.402754-10.62904.867522-7.32163 3.126734-14.59753 8.061621-14.88823 16.802768-.17311 5.212311 2.03292 9.642612 3.18003 14.535069 1.04912 4.474036-6.14382 4.121545-7.38957 8.449362-13.28777-7.02895-28.08585-9.179803-42.939462-9.658279-15.787104-.509155-31.801539-.917131-47.454074 1.5712 3.633379-6.325271 5.551976-13.261529 8.713055-19.759782.909978-1.870819 1.301928-1.710892 3.31002-1.145599 3.857444 1.085544 7.686145 2.300336 11.53575 3.418519 14.063176 4.084989 27.850027 9.006821 41.448091 14.397336 1.32152.524169 4.27226 1.979177 5.43047.39688 1.33655-1.824472-1.75528-4.073893-3.00691-4.991677-5.47555-4.013839-12.260861-6.44995-18.392923-9.265968-13.406659-6.154901-28.252429-9.076667-42.241135-13.647965-30.199116-9.870427-61.441472-17.366755-92.824931-22.317961-7.658709-1.208263-15.399074-1.385162-23.091098-2.282058-6.813402-.794413-13.639216-.776135-20.451965.044388-12.582911 1.516368-27.170647 4.788015-34.277359 16.297529-6.415572 10.391984-10.698283 22.075785-9.061237 34.402558.491898 3.702471 2.061005 8.087078 6.633105 7.132739 3.171531-.661901 4.855611-3.354548 6.328038-5.982571 2.224971-3.970103 4.422505-7.940207 6.833653-11.80391.8943 5.79327-2.355622 11.489931-1.84478 17.39156.34753 4.004699 2.562049 10.331929 7.765189 9.19808 7.131535-1.553575 10.066589-12.686445 13.495501-18.02735.173765 4.113711-1.269266 8.168021-.827668 12.290871.435718 4.072587 3.620314 7.91736 8.09312 7.359247 4.218691-.526126 6.960383-5.042592 8.752249-8.442834 2.493457-4.731877 4.28467-9.80515 6.719988-14.56836 2.282457-4.464897 4.986261-9.780345 10.435676-10.619145 4.86345-.749372 10.436983.985019 15.240987 1.700447 13.325656 1.984399 26.382826 5.363099 39.562808 8.092953 14.131767 2.926336 28.597345 4.703809 42.293395 9.425895-4.815763 6.549822-17.418271 5.134632-24.592267 5.837658-10.841345 1.062698-21.821832 1.862332-32.601771 3.430268-10.646676 1.548354-21.070594 4.297138-31.634307 6.292634-10.508187 1.985052-20.998083 3.973367-31.165927 7.358595-18.878285 6.285453-38.071437 14.240021-54.7045 25.207089-7.739059 5.103299-14.613866 10.935735-19.394353 18.990828-4.81119 8.105356-7.123043 17.270798-8.004932 26.594209-.54873 5.805673.383458 10.829988 1.509009 16.480303.815257 4.090865 1.07917 10.940305 4.361753 13.935833 6.265326 5.71755 11.467159-17.473807 12.624066-20.274813.832894 4.590228-.529133 30.45008 9.523738 28.346878 4.486524-.93802 5.504289-7.091615 6.248341-10.798002 1.357454-6.756748 2.573153-13.649271 4.894806-20.156663 1.490064 8.76791 2.111305 17.902673 5.321378 26.276967 2.132209 5.561539 8.215931 15.430007 12.457486 5.908809 3.18133-7.140573 2.089748-15.33601 2.471247-22.917197.422653-8.401057 2.836413-16.504455 3.690865-24.823264.331198-3.22269.031356-6.854662 3.272131-8.613205 2.782194-1.509188 6.850638-2.000718 9.888253-2.843435 8.997218-2.496165 18.05323-4.790626 27.007987-7.438885 8.958677-2.650217 17.793236-5.746271 26.632368-8.76791 8.453714-2.889781 17.085113-4.532785 25.641387-7.007409 4.864757-1.407356 9.67072-2.879336 14.603415-4.05431 2.295522-.546362 4.619134-.971963 6.90943-1.537909 1.697798-.419073 3.934527-2.000718 5.680013-1.972649 1.796438.029374 2.471899 1.549006 4.531598 1.668462 2.217785.127941 4.472806-.360978 6.67818-.530044 5.372985-.411893 11.084353-1.077711 16.444927-.333561-3.221832 3.818662-7.573133 6.458435-11.386809 9.621723-4.398335 3.648292-8.654915 7.587715-12.411759 11.89595-7.559414 8.66869-14.704015 17.831521-21.341693 27.22282-6.547529 9.264663-11.81926 19.402722-16.402466 29.760762-2.283763 5.161395-4.500895 10.435719-6.078495 15.860831-.648025 2.228532-1.177158 4.46555-2.347129 6.492379-1.073291 1.859068-2.585565 3.461601-1.316953 5.706452.873396-.546362 1.65795-1.225236 2.447729-1.881262-.91259 6.423838-2.882141 12.63814-3.894679 19.042396-.998167 6.309606-.957665 12.798721-.892993 19.170991.135876 13.345083 1.128817 26.387937 3.837846 39.477789 2.739733 13.236072 6.259446 26.371618 10.69763 39.140311 4.272258 12.294135 8.559541 25.186853 14.523064 36.774045 6.369192 12.376383 13.946244 25.388557 23.165568 35.864747-6.022316 2.464833-13.68625 2.003982-20.063281 2.996834-6.665768 1.037893-12.43201 2.996835-18.112676 6.682333-5.747298 3.729887-8.867222 8.53161-9.661574 15.332093-.564409 4.840236-2.241303 11.541499 4.113518 12.813081 4.570793.914521 9.680519-.587486 14.260458-.958908 8.011463-.648846 16.034685-1.054212 24.063787-1.404093 8.008197-.349228 16.018355-.656679 24.029165-.904729 3.767949-.116845 7.537857-.175593 11.304499-.310715 1.688-.060055 2.711643-.086165 4.225224.401449 1.196755.385783 1.10922 1.186723 2.441851.196481 2.149194-1.59731 1.706943-6.633375 1.646844-8.847547-.091455-3.417213-.415467-6.873592-1.082436-10.226182-.39587-1.992232-5.20118-14.834035-1.464588-15.374522-4.340849-4.766474-6.074576-11.572832-8.024528-17.546917-2.443157-7.484579-4.587778-14.948269-6.271205-22.6463-3.596144-16.443748-5.185502-33.067006-5.185502-49.891967 16.669645 10.267306 34.306755 15.828845 53.940851 16.44897 19.520428.61686 40.965988-.985019 59.501968-7.474135 8.58371-3.00532 16.27247-6.951923 23.63199-12.268677 2.63783-1.905414 5.46379-6.221482 8.92602-6.14772 4.13181.088776 8.75878 1.65149 12.86185 2.319919 7.84684 1.27811 18.0885 1.999413 24.73206 6.849441 3.60855 2.63455 6.19477 6.322007 9.4153 9.357354 2.44969 2.309475 5.68916 3.563433 8.12055 5.872907 2.62346 2.491596 1.58152 5.746924 5.93152 5.948628 3.7183.171676 7.79524-1.32315 11.00204-3.077777 6.39794-3.500767 13.21134-10.972943 7.29812-18.064558" fill-rule="evenodd" transform="translate(-738 -507)"/></svg>