<svg height="373" viewBox="0 0 486 373" width="486" xmlns="http://www.w3.org/2000/svg"><g fill="none" fill-rule="evenodd" transform="translate(-33 -20)"><path d="m0 0h551v413h-551z" fill="none"/><g fill="#000"><path d="m294.654627 117.135045c7.991637 5.581613 18.695293 2.309332 26.459152-1.891924.466219 3.254323 6.547908 2.945636 8.726344 4.514311 3.434126 2.473383 7.281646 6.975075 9.975734 10.254636 6.221748 7.57449 10.066845 18.159654 13.549434 27.235355 3.586787 9.345561 8.016065 17.362365 17.236737 22.558603 2.979054 1.678852 5.864279 3.930337 8.921359 5.504836 3.65512 1.882702 7.889996 2.803363 11.910046 2.50147 4.790136-.35965 8.921617-.509625 13.617249-1.411905 5.017429-.964406 10.37265-1.974434 15.34307-1.822518 3.688559.113088 7.412013-.638245 11.007523-.467884 2.207513.104351 4.395157-.082511 6.598794.009707.873313.036401 1.55568.029607 2.456132.110661 2.135303.192202 2.169228-.038829 2.482787 1.853095.370261 2.236528-1.059897 5.867973-1.200926 8.163715-.163322 2.668011.288843 5.302046.191431 7.94676-.109528 2.971845-.965879 2.698588-3.56207 4.060987-2.518165 1.321143-4.91178 2.594236-7.515241 3.75958-7.456599 3.337804-15.329985 6.604746-23.555216 7.524498-9.868144 1.103703-20.149199-.066494-29.954826-.491182-5.464263-.236369-11.126743-1.173594-16.382613-2.515122-4.135393-1.055653-10.8379-3.198993-14.068479-5.974267 3.696798-.165992 2.400399-3.448466.242318-4.899685-3.932332-2.644713-5.693496-1.375018-4.752334 3.06018-4.628268-1.515772-8.767539-5.188958-12.708108-8.12974-5.066379-3.78045-12.585011-9.461561-12.885001-16.263362-.338275-7.66962-9.372362-23.150101-8.43217-15.078604.84472 7.254154 4.017143 17.060098 0 23.855589-.174953-4.073606-7.435275-10.767922-10.853408-11.915307-6.078297-2.039958-13.295486-1.724475-19.627732-1.335219-11.731568.720271-23.498998 3.027176-34.754654 6.135891-11.355006 3.13638-23.50966 7.210472-32.940179 14.656343-1.161671.917811-2.24677 2.438922-3.42928 3.229569-.412425.275683-1.64776.118913-2.235138.424203-1.563434.811517.808372.948389-1.762134 1.138649-.556362.04077-2.016568-.555735-2.395068-.727551-6.216903-2.822355-5.864088-10.36918-5.493342-16.151245.85102-13.288605 5.142951-26.696609 10.384282-38.825695 4.689331-10.849683 11.085548-22.480307 20.357592-30.077124 4.056397-3.322758 8.084687-7.220665 12.757056-9.58921 1.774735-.898882 4.966543-2.306419 4.26673-4.994815-.746824-2.869919-4.140241-1.472575-6.525615-1.587605-12.392126-.596504-22.382884-5.8140983-31.764939-13.7458118-9.614681-8.1282833-19.718351-10.8736678-31.653466-13.9459813-3.436549-.8843212-27.065922-6.5623181-30.456431-6.5327113-3.751562.0330039-7.4881.1553145-11.235785.2261767-2.227869.0422258-4.458161.0373725-6.688453.2159837-1.795574.1441515-3.773855.8862631-5.562644.6940614-1.676839-.1800674-1.545502.3174242-2.369867-.9284891-.580109-.8765554-.423571-2.6917929-.591255-3.7595797-.146845-.9323719-.293689-1.865229-.440049-2.7980867-.462827-2.942723-2.625662-4.447515-.241257-5.6371266 3.50246-1.7477727 10.719222-3.3327476 14.550749-4.0345747 3.668205-.6712495 24.434391-5.6415419 31.376792-6.9932628 3.457873-.6731909 45.33112-2.2326811 46.893099-2.2443168 15.043566-.1024233 47.124874 8.1833638 54.331678 14.8060679 7.206803 6.6227043 7.214609 11.4258031 10.328876 14.1049769 3.480651 2.9936856 8.192276 6.7168638 10.640653 10.597783 1.655515 2.6233579 2.290872 9.5649421 5.675565 10.5866196-2.458555 7.8686176-1.572157 19.9205316 5.756498 25.0395976z"/><g transform="translate(33 20)"><path d="m39.9409849 72.3002268c.9538848.2203553 1.4155824-.1592 1.5810966-1.1459464-.624792.4528451-1.1029443.7993955-1.5810966 1.1459464m12.4880982 233.7541052c-.8459617.046595-.0087112 2.192393.0992118 2.183657-.0333932-.727562-.0663025-1.45561-.0992118-2.183657m230.6503919-265.4265844c1.102461.1854094 7.309245 1.8846715 5.219507-1.5813184-1.122787-1.8623447-3.387234 1.5827745-5.219507 1.5813184m-20.507795 41.9005709c-3.157354 1.7492548 6.583788 7.9250362 7.977593 8.3118722 1.361379.3780988 11.627134 1.7405181 11.75006-.5227382-3.582755-.7935713-7.18148-.314516-10.692608-1.3745529-4.295143-1.2973802-5.953673-3.4334704-9.035045-6.4145811m153.533821 95.3712675c.188744-2.816572.302475-5.551602.874031-8.324006.11857-.575157 1.086006-3.229132.871128-3.574226-.33732-.541182-2.911018-.993056-3.442406-1.174583-.408946 5.516656-.873064 11.015354-1.638688 16.49852 1.79791-.621267 1.328954-3.097113 3.335935-3.425705m-335.8032382-129.200222c0-3.0184836-.8033731-7.5100493-1.4044513-10.4397111-.491703-2.3947898-2.2431534-4.7245408-3.2444661-7.1334062-.3121545 1.6580061-1.4063873 4.1906395-1.0564845 5.8816504.4573422 2.2045269 1.5002756 1.8424447 1.5002756 4.5556339 0 1.6497549-.2724697 3.5286019.0275853 5.1511764.5889793 3.1961271 1.5341526 2.685038 4.177541 1.9846566m232.0335502-23.2907144c-3.614696-2.005042-9.793895 1.8084691-13.034489 3.5620921-3.846997 2.0822149-7.717223 7.6794416-9.277993 11.744857 1.528829-.1698777 2.821485-.1985142 3.932657-1.0226636.57204-.4242088 1.174086-1.6225745 1.714185-2.1880245 1.393321-1.4590065 3.148643-2.8175425 4.677472-4.1450152 3.643732-3.1636076 7.584133-5.9631917 11.988168-7.9512458m21.367792 50.5376371c3.002486-.5290475 6.463282-1.8938932 7.322311-5.2793128.830475-3.2718441-1.565126-4.8560746-4.492598-5.2628104-6.716878-.9348123-11.259325 8.8224759-2.829713 10.5421232m-23.437688-10.0970432c3.311252 2.3147045 6.931271 2.0220292 10.210099-.5644793 2.625966-2.0705666 5.189016-5.6113027 2.213148-8.1424797-4.781039-4.0668717-11.633425 4.2547077-12.423247 8.706959m142.837341 256.1483515c-2.073284.127165-5.41551 2.29626-7.233747 3.365034-2.280418 1.340092-4.680859 2.753474-6.887232 3.989698-4.578259 2.565639-9.722267 5.445308-14.798522 7.369779-4.977042 1.886128-9.996673 4.259076-15.079218 6.489813-2.174432.954227-5.217571 2.069595-7.682862 1.81041-2.256221-.237343-4.625687-2.559814-6.647188-3.577138-3.138963-1.579862-5.179821-3.630529-7.688185-6.158794-1.092297-1.100807-3.874098-5.72779-5.349207-5.901065-1.260231-.148036-4.705541 2.612233-5.689431 3.204379-1.521086.916854-3.816507 2.419058-5.261611 3.570828-1.430585 1.139637-1.509955.301897-1.60965 1.799247-.068238 1.01781 2.26348 3.015086 2.98216 3.835353 2.415443 2.755901 4.936874 5.453073 7.217776 8.327889 1.959553 2.469536 3.78263 5.120598 5.465842 7.787678 1.631912 2.586994 4.656177 5.580724 5.314362 8.605517 3.796665-3.721291 7.526059-1.906512 12.298386-3.027705 2.066508-.48585 3.902168-1.632767 5.837523-2.312278 1.613522-.566421 3.346582-.75183 5.007048-1.119251 7.366352-1.628399 14.512986-4.814819 21.402637-7.664396 1.609167-.665434 2.944412-1.938061 4.499374-2.707364 1.666274-.82415 3.485479-1.099351 5.165303-1.857976 4.321277-1.950682 8.703049-4.001833 12.97593-6.089872 4.583583-2.239959 9.413986-4.17705 13.911424-6.541261 2.717434-1.428429 7.988724-3.988728 9.244115-7.013036-3.002002.538754-5.521981 2.251122-8.301846 3.117012-4.902996 1.526958-4.662952-3.093715-4.662952-6.615036-1.640624 0-4.934938 2.35596-6.505387 3.08692-2.028276.944034-4.688603 3.43978-6.940467 3.607716-5.572314.414987-2.879561-6.923729-.984375-9.382101m-196.84435-250.4987057c-3.112829-.9406371-3.735201-6.8970337-5.053508-9.3602601-1.944066-3.6334403-5.669589-6.5762074-8.642069-9.4155912-2.734373-2.6112625-5.661362-4.820643-8.728699-7.0135211-3.141867-2.2467535-5.315814-5.2021397-8.205054-7.6794415-12.067053-10.3455504-26.802177-13.8479426-42.375035-14.388639-15.644484-.5431232-31.433672 1.1867169-47.152685 2.1923927-2.00311.1281363-3.793277.1844386-5.791547.5227379-.480088-.1451241-.959692-.2902482-1.43978-.4353722l-1.111656.8013372c-.770464.1135754-1.866633.231519-2.576118.3693626-3.663091.7110594-7.324247 1.6570354-10.985403 2.4860385-7.761263 1.7565351-15.2655435 3.3713437-23.087785 5.0123621-1.8651815.391204-6.4018205.6426229-7.8648305 1.8273983-1.1348858.9192809-.7109374 1.2813631-.4457271 2.9699471.2439156 1.5531673.4873473 3.1058493.7317472 4.6590166.4737968 3.015086.2681134 4.0557081 3.5241952 3.7436185 2.7992234-.2684067 5.5277887-.7654202 8.3584693-.8940419 4.0696178-.1858947 8.2065059-.4222673 12.2770919-.3416968 4.032353.0800852 8.677883-.5897182 12.625543.4455649-1.217159-2.5539895-1.933904-10.2902187 1.296044-4.9366452 1.518182 2.5166164 1.142145 5.6006242 4.40597 6.4990344 2.661295.7324155 5.556342 1.1600218 8.299426 1.8550642 10.812629 2.7403696 22.083085 4.6294095 31.307358 11.7642714 9.040853 6.9931359 17.269137 15.0433963 28.8411 17.5959295 2.775993.6125306 6.150644.9687881 9.073278 1.1100297 1.702086.0820266 5.085449-.9498593 6.242113.5892323 2.808419 3.7353679-7.593813 8.1303456-9.678712 9.9912345-4.238036 3.7834182-9.028753 6.7402607-12.698621 11.1556233-3.835381 4.614364-7.131631 9.642743-9.956504 14.905553-6.35536 11.839503-10.843603 24.393949-13.45263 37.571117-1.235065 6.238394-2.630806 13.383449-1.520602 19.766481.448147 2.575346 1.889379 5.140013 4.107851 6.607756.7211.477599 1.625136.808132 2.458516 1.059066.787886.258699 1.595615.41159 2.42367.45867.091952-.466436.268598-.895984.528968-1.289129.586559-.304809 1.820657-.148036 2.232506-.423724 1.180862-.790659 2.263964-2.312277 3.4245-3.230102 2.014724-1.592967 4.190608-3.10682 6.407143-4.393522 5.589736-3.243207 11.676014-5.150691 17.657757-7.191165 12.313873-4.199861 25.212369-7.642553 38.28751-8.924888 6.900299-.676598 14.655271-1.092555 21.493622.189293 4.409842.827061 13.357774 4.705126 13.587655 10.064524 3.99896-6.774236 1.463494-13.901333.605434-21.142005-.959693-8.092972-2.606124-15.736497.107923-23.723659 1.845822-5.433174 5.021567-12.601527 10.419654-15.376357 1.933419-.993541 6.058692-.394116 4.627139 2.889377-.036781.084454-2.729049 1.618691-3.111861 2.065227-1.309595 1.526958-2.301713 3.522778-3.277376 5.27543-7.758359 13.938706-.854673 29.156833-.345547 43.94881.235688 6.829082 7.815951 12.488436 12.867039 16.264089 3.925398 2.93403 8.077773 6.616492 12.690877 8.12986-.93985-4.435749.818376-5.704978 4.74571-3.060225 2.155073 1.451241 3.449665 4.733277-.24198 4.899272 2.910534 2.504482 8.85598 4.444971 12.555368 5.408905 4.334344 1.129444 8.770319 2.135605 13.28518 2.775316 9.015203 1.276995 18.194952.87123 27.259519.96442 9.333164.095617 17.120562-2.399159 25.695361-5.640425 3.93556-1.488128 7.634949-3.208746 11.378862-5.16331 1.269427-.663008 4.149471-1.432797 4.847825-2.884038.899682-1.869625-.445243-6.718419-.364905-8.856451.084693-2.276361 1.771776-7.005755 1.256359-9.079233-.492187-1.985142.75643-.59069-1.257811-1.58326-.544455-.268407-1.765486-.407707-2.432382-.482938-3.728426-.420812-8.1373-.074746-11.760223.39266-4.151407.535357-7.997919-.186866-12.03366.290733-5.602318.663008-11.350793 1.65655-16.762915 3.262623-8.539954 2.534574-16.443017 2.354504-24.074579-2.49429-3.228012-2.051152-7.030484-4.156179-9.797282-6.963043-3.718747-3.772741-6.444409-9.144273-8.54431-13.961518-4.619396-10.597455-7.985336-21.723472-14.309723-31.50066-2.710659-4.190154-6.480221-7.599842-9.961828-11.167759-1.646915-1.6871276-2.59354-2.659313-4.849277-3.3854186-1.819689-.5853501-5.51569-.7644498-5.8714-3.2485464-7.753036 4.2018025-18.439835 7.469764-26.421784 1.8914663-7.317472-5.1138031-8.201667-17.179001-5.748475-25.039969m-.40217 101.2694207c-10.103629 1.116339-19.88736 1.953593-29.824022 4.256649-10.024743 2.322955-20.482145 5.865148-29.997763 9.362201-3.732782 1.371641-8.463005 2.339458-11.842496 4.463415-2.507879 1.575979-2.194757 1.516765-.394911 4.420216 1.205544 1.944857 2.218956 4.121233 3.508224 5.987946 5.240801 7.588193 12.41986 14.079461 18.443708 20.964361 6.654931 7.606152 14.452975 15.137072 22.079697 21.802101 7.335863 6.410212 14.568158 13.278124 22.367653 19.037948 16.257177 12.005983 32.721973 23.845486 49.617977 34.932188 9.383496 6.157823 18.542435 12.46611 27.951581 18.667615 4.891865 3.224279 9.457058 6.784915 14.654786 9.478204 5.362759 2.779199 11.914606 6.671339 16.329287 10.775098 3.08234-5.4555 9.599342-8.9875 14.475721-12.517072.973727-.704265 2.020532-1.65655 2.953607-2.446724 1.775164-1.503175 1.864697-1.253212.916136-2.973345-1.043418-1.891467-3.888617-3.415512-5.378729-4.980813-1.362831-1.431826-2.262512-2.883067-3.499998-4.414393-4.116077-5.095359-9.418341-9.326284-14.025638-13.961033-4.435975-4.462443-8.559313-8.993324-12.895108-13.745045-2.14733-2.353048-4.586971-4.046486-6.64622-6.427685-2.859234-3.307276-5.678784-6.694152-8.502206-10.034917-5.06609-5.994741-9.322517-12.357388-14.252131-18.382706-8.969711-10.96342-15.773701-23.35818-23.624981-35.118569-4.818304-7.216889-10.776332-13.954238-15.156652-21.457977-2.41254-4.132881-4.736515-8.251686-6.465219-12.767035-.984858-2.572433-.747234-2.773374-3.150578-3.526175-2.31962-.726106-5.247576-1.229915-7.641725-1.394453m-125.522713 105.293579c5.114971-.494587 10.376582 1.205647 15.340073 1.415324 4.826047.204339 9.762921.729989 14.597679.412075 5.306135-.348492 10.643244-.338299 15.928569-.173761 5.729599.178129 11.187698-.750859 16.710163-1.561419 5.58296-.81978 11.663431-3.361636 17.121045-4.987608 3.228496-.961993 6.334065-2.209866 9.577564-3.117013 3.280763-.917339 5.895114-3.096627 8.884534-4.769679 2.039406-1.141093 6.364071-2.523412 5.458582-4.870636-.804825-2.086098-6.168067-5.217671-7.922421-6.73298-5.188049-4.481373-10.44724-8.92877-15.253445-13.847943-10.192677-10.432916-19.906718-20.839622-28.517814-32.614571-2.045698 5.794769-4.304338 11.674479-8.826942 16.085474-3.842157 3.747987-8.270873 6.960616-12.37582 10.373701-7.971301 6.627656-17.561932 11.349285-27.083357 15.166679-4.711349 1.88904-9.266862 3.100995-14.014508 4.771621-2.247509.791145-4.64069.636799-6.747851 1.133327-3.193166.752315-6.528618 2.307909-9.762921 3.221366-4.5589007 1.288644-9.1681338 2.192393-13.9346535 1.781774-6.2033965-.534386-11.3604721-3.57908-17.0097345-5.781665.2937634 2.200644-1.3942883 9.999485-.1432522 11.646328.6935145.912485 5.1319095 1.287673 6.5068395 1.594908 5.6105458 1.253698 11.5826095 2.011838 17.1878313 2.738914 5.9444784.770759 11.5511524 3.716438 17.3509264 5.087108 5.473585 1.293497 11.519695 2.498658 16.928913 3.028676m-99.887847 32.097173c.3571623 4.175108.878387 10.485821 4.2544904 13.489258 1.2931405-3.141766.5759122-7.388708 1.1479526-10.736268.3407077-1.993879.8028893-3.957179 1.2839454-5.920965.2734372-1.114883.4408873-4.329454 1.022607-4.976931 4.1760889-4.649309 5.0220506 9.189411 5.4948793 10.797911 1.5452836-3.73197 1.0356739-7.874559 2.4081839-11.520134 1.6415916-4.361002 4.2085143-.851815 5.6081259 1.886613.4133017-6.021435-1.9498739-12.090922-1.8661489-18.227389.0900165-6.543688 1.2011882-10.896925 6.2077521-15.303551 2.3936651-2.106484 8.7867736-4.684742 9.9385979-7.333862.1960037-.449448.1461559-3.771284.0183906-4.234323-.5371951-1.946798-.3368362-1.546857-2.6975919-2.113763-2.068444-.497014-3.9936357-1.166332-6.0867619-1.476965-5.7015303-.845991-10.0949172-.965391-14.9272556 2.588935-5.0254384 3.697024-7.4142639 10.274687-8.7548325 16.178665-2.7387284 12.059858-4.0008955 24.562855-3.0523343 36.902769m394.720986-133.188949c8.539954-1.090615 16.994247-4.588154 25.417084-5.16962 5.064155-.349463 10.710513-1.510941 15.671585-2.574861 3.262857-.699896 10.079431-1.276024 11.900571-4.436234-2.199597.678055-5.101904 2.222486-7.401197 2.28267-1.690471.044169-2.27945.364024-2.613866-1.959417-.160191-1.111486.201327-2.445753.874999-3.31941 1.160535-1.504631 3.646153-2.240929 5.334205-3.198069 2.275095-1.289613 4.390967-2.670477 6.533457-4.17171-.653346-1.623059-9.784215 1.632282-11.214316 2.146769-1.772745.637769-3.570172 1.256609-5.271774 2.070566-1.116495.533901-3.052334 2.257917-4.313534 2.211807-3.187843-.115516-2.900855-3.967372-1.356055-6.180635 2.188466-3.134486 6.550879-5.467634 9.488999-7.904651-3.141383.133961-5.995777 1.972037-8.882597 3.071874-3.18978 1.215839-6.423115 2.596701-9.544656 3.953296-7.660599 3.330088-15.821613 5.611788-23.611429 8.824417 2.341881 3.999406-.319898 5.96756-4.145116 4.49739-.576396 3.373285-.801437 6.808697-.801437 10.222268 1.311531-.122312 2.623546-.244624 3.935077-.36645m-355.0130538-136.1123024c.0425885-.7387252.6015621-4.3425587-.060979-4.9662525-.2318166-.2179287-3.9573389.3072359-4.3241807.3611114-2.4231863.3562578-4.4253284 1.2643753-6.6946156 2.2321927-5.5534385 2.3685801-11.1693078 4.5051559-16.7120991 6.889753-10.3775497 4.4643853-20.6568555 8.6103713-30.3447624 14.4148487 7.1993858-.6096181 14.5642857-2.6976576 21.119037-5.7404092 2.7726056-1.2867021 13.1791928-9.9388147 13.4855393-2.4108069.1355088 3.3315437-2.7300171 4.5163193-5.1493321 6.1214206-2.9623178 1.9647568-5.8655925 3.9134961-8.6164199 6.1626764-1.4630104 1.1969097-13.1259572 9.0496265-12.5616601 10.306236 2.9623178-.7091182 6.1472571-2.9481059 8.7562843-4.5090387 2.9037587-1.7380912 5.9498016-3.2834927 8.9479324-4.8628699 1.6353001-.8620079 5.3666301-3.8557376 7.1635727-2.5467089 3.1133133 2.2681096-1.1537601 6.4830171-2.5557916 8.0337579 2.7251775-.2834531 6.3766541-4.2556786 8.4968819-5.9112577 2.6811372-2.0938637 5.5006871-3.9644598 8.2219925-6.0253187 2.8442317-2.1540487 5.8225203-4.174137 8.7103087-6.2757664 2.6971075-1.9628152 2.2600919-1.9516518 1.9958498-5.1856374-.165998-2.0307662.0058073-4.0605617.1224419-6.0879304m117.9506778 138.4818524c3.508708-.36014 6.653479-2.52147 10.022807-3.198553 3.318996-.666892 6.452636-2.517588 9.716945-3.566946 4.293691-1.380863 8.63965-2.402071 13.075141-3.181081 3.722619-.654272 7.315052-2.071537 11.041059-2.504968 7.688185-.894527 15.029371-1.927869 22.770308-.826091 3.831993.545065 7.188254 1.350285 10.61469 3.183993 3.813602 2.040959 4.189639 1.940003 8.284423.135417-1.280074-3.449973-6.137094-5.740409-9.396079-6.442732-4.910256-1.05858-10.057652-.581467-15.058409-.414501-8.635778.288306-17.602101 2.166668-25.875878 4.494963-15.862265 4.4639-31.106998 9.662156-45.686287 17.098916 1.23313 1.69635 2.53353-.36548 3.962663-1.237681 2.087802-1.275053 4.39871-2.303056 6.528617-3.540736m134.94299-128.762908c-2.766798-.5474915-5.533112-.7678471-8.296038-1.4264871-3.491286-.8324006-5.020599.4339161-8.270389 2.0603735 1.300883.5931157 2.957962 1.6201476 4.341603 1.9783468 2.43577.6309743 1.620781.1208558 3.936045-.8071616 2.054409-.823664 5.921732-1.1551682 8.035184-.7256204 5.661362 1.1503146 4.752969 7.8410679 4.211418 12.3010849 2.789061-1.3570795 3.142835-3.9120401 4.134469-6.5116537 1.073423-2.8136595 2.228634-5.3686199 3.055238-8.2939134-3.532423.9251052-7.478147 1.4638602-11.14753 1.425031m44.438155 106.013376c10.043617-3.754297 21.323752-2.795702 31.654842-3.670814 3.976213-.336843 9.472061.266465 13.38536 1.542004 1.875343.611074 3.985892 1.058581 5.76396 1.886127.954853.444595 1.726769 1.511912 2.708723 1.841474 1.922288.64505 1.823077.266465 3.883293-.863949 1.806622-.9916 3.627279-1.937091 5.483749-2.829191 11.231254-5.394344 22.565593-10.177615 34.12352-14.675975 3.001035-1.168273 5.985131-1.955049 9.068438-2.97383 1.947454-.643594 5.352112-1.955535 7.447173-1.288159 7.303437 2.325384-3.322383 11.060978-5.717016 13.310644 2.980224-.139299 8.452841-1.531326 10.17719 1.787114.715293 1.376009.464117 3.388331-.176645 4.765311-.469441 1.008103-1.491564 1.590055-2.00795 2.541855-.972759 1.794394-.598174 1.149344-.450082 2.94665.409914 4.990035-.565749 7.199416-4.719092 10.400397-3.925398 3.025763-9.002136 4.315378-13.683479 5.639938-8.187147 2.316646-16.77695 2.972859-25.069117 4.972077-3.899264.940152-7.969849 1.548799-11.880244 2.258402-4.343055.788233-9.451735.177644-13.127894 2.591363-7.346993 4.824041-14.083713 10.845476-22.238435 14.334763-7.19745 3.07964-13.906585 4.586698-21.639778 5.916112-7.279723 1.251756-14.819817.363053-21.848848.542637-8.221025.210164-15.845811-.351889-23.682572-2.724352-7.968882-2.412263-15.656099-5.499183-22.435892-10.112575-3.831509-2.606894-7.645112-5.119142-11.249161-8.054629-4.395807-3.580536-7.388614-7.822139-10.676153-12.422426-1.888411 2.039988-3.398365 3.172344-5.869464 4.477005 7.546385 8.300708 13.919168 17.92986 21.081288 26.572751 2.985064 3.602863 5.461002 7.486752 8.291199 11.165331 2.801159 3.641207 4.663921 8.146363 7.739485 11.534209 2.870849 3.161666 4.8154 6.826656 7.249717 10.334872 2.984581 4.302759 6.999995 8.067248 10.177675 12.254976 3.279311 4.322173 6.635572 8.585617 10.197516 12.639384 3.30109 3.755753 6.81367 7.456659 9.901817 11.359963 6.281798 7.940082 13.724616 15.115715 20.867378 22.28698 1.464463 1.469685 3.073145 2.89423 4.372577 4.514378.958724 1.194482 1.891799 1.985627 3.046043 3.230102.967435 1.042079 2.148781 2.863167 2.939571 4.123174 1.395257 2.225398 2.231539 3.201951 4.065263 5.125938 1.209415 1.268743 3.621471 3.794581 3.104118 5.763706-.317478 1.208073-1.779036 1.249329-2.189434 2.258888-.228913.562538.243916 1.279422.226009 1.843901-.086145 2.771433 1.255876 3.53928 3.462732 5.569561 2.224279 2.046783 5.097064 3.683433 7.716739 5.210391 1.976008 1.152255 4.025093 2.717072 6.213075 1.666257 1.520602-.730959 3.100731-2.123956 4.699734-2.950047 4.048807-2.091923 8.421868-3.969313 12.550045-5.654986 9.227177-3.767886 18.476133-7.869219 27.33308-12.696657 4.995434-2.722896 10.445789-5.419097 15.946959-6.732494 2.476907-.59166 5.091257-2.079789 6.915302.129107 1.810493 2.190936.642698 5.178842-.372649 7.393561 2.562083-.369848 5.958028-1.093041 7.616559 1.449299.627696.961994.220201 3.503363.906457 4.062989.302474.247051 2.749375-.291219 3.232367-.164053 6.245985 1.645872 4.068166 10.912456.926783 14.402229-7.17664 7.973573-17.883766 11.904542-27.225158 16.497549-2.444481 1.201763-4.919935 2.229766-7.438461 3.217968-3.226077 1.266317-6.177263 2.865594-9.452219 4.047457-5.455679 1.969125-10.728421 4.82938-16.045687 7.003329-5.42906 2.220544-11.474202 3.328631-17.178152 4.974989-4.837662 1.395909-15.105837 4.583299-15.210856-3.242722-4.566644 3.560636-10.406103-8.06288-12.731046-10.807618-2.096998-2.47536-4.183348-4.990521-6.172423-7.553732-1.815817-2.339458-3.600661-8.02939-5.979807-9.55392-1.453815-.931901-3.062498.932871-5.29936 1.377465-3.882325.771245-5.806065-.322282-9.081021-2.128324-5.999166-3.308247-11.53131-7.376089-17.681955-10.4169-6.089666-3.010717-11.285942-7.377059-16.997151-11.036224-5.472618-3.506275-11.392898-6.428657-16.531098-10.323224-10.076043-7.638185-21.793194-12.914101-31.247348-21.397306-4.872991-4.373137-10.590976-8.015314-15.792091-12.070052-2.369951-1.847783-4.875895-3.419394-7.337315-5.129335-1.385093-.962478-2.717434-2.392848-4.234164-3.124778-1.505599-.726591-.740942-1.0115-2.148781-.463038-.802406.312575-1.722413 1.770125-2.383018 2.357417-9.766793 8.687059-20.796236 12.794701-33.122692 16.670824-2.790996.87754-5.387924 1.831281-8.220057 2.573404-2.701947.708147-4.679406 1.927384-7.619946 2.353048-5.425189.785806-10.767622.828033-16.231043.860552-5.379697.032034-10.913778.113576-16.137639.579526-5.375826.480026-10.967013-.442653-16.243626-.879481-2.670491-.220841-5.430513-.616414-8.106327-1.02412-2.609027-.397028-4.812496.107266-7.379903-.17376-7.217292-.788718-13.641858-2.426339-20.518442-4.782785-6.2750231-2.150166-12.6831347-2.537972-19.032687-4.333337-3.3751351-.954227-7.1979337-1.739547-10.3083433-3.337368-1.7669369-.907632-4.3677369-4.17074-5.1633667-1.857491-.9427535-1.217295-1.5443156-2.661741-1.4412325-4.227527-2.4149593.593115-3.6364735 3.716438-5.4077666 5.352117-1.9639088 1.812838-3.8973281 3.002467-5.2359608 5.457442-2.995227 5.493844-1.0492245 12.999039.1311533 18.76129 1.2374851 6.043762 2.3559162 12.881582 1.6406237 19.050082-.2603702 2.24821-.8556412 5.536557-3.6190512 5.684107-2.8122904.150463-4.4592056-4.270239-5.4547109-6.2083-2.152653 5.1371-4.9770424 6.94557-9.0645666 2.571947-.7772395 2.913645 1.3158866 14.686168-4.5226042 13.323264-4.3769323-1.021693-8.026957-10.609589-9.3288088-14.213423-4.2859478-11.861344-3.6117918-25.479224-2.1279711-37.808946 1.4392964-11.959388 2.7745414-25.116656 12.4561568-33.689169 4.1886719-3.709158 8.2757123-4.317805 13.5866869-4.181418 5.3361408.137358 12.8302576 2.526324 16.3863943 6.605815.8812906-1.508999-.8866145-3.145164-.1761616-4.708038.9485613-2.086584 2.9313445-1.212927 4.8531487-.740182 4.3420875 1.066832 8.3763762 3.057313 12.8471966 3.809629 2.2891299.385379 4.6464976.268406 6.9370796.501381 2.0156925.204824 2.5519199-.314516 4.3014344-.623693 1.3788013-.243653 3.4724114.103382 4.774263-.349463.543971-.189292 1.452847-1.17167 2.130875-1.504145 1.106332-.542153 2.761475-.789204 3.97573-.962479 7.305373-1.041593 14.289396-3.868842 21.362953-6.277223 8.595125-2.926264 16.942464-5.746233 24.56483-10.945946 6.977732-4.759973 14.491208-9.453935 20.254201-15.679224 2.584829-2.791818 4.080265-5.996682 5.479877-9.469952 1.230225-3.051974-.358615-3.443663-1.849695-6.277708-1.310079-2.489436-1.540928-4.837146-3.799084-6.341291-3.299638-2.197247-7.201322-2.619999-10.442884-5.197286-3.985409-3.168462-3.848449-8.21577-4.725867-13.041752-1.794039-9.867951-.351839-21.779774 2.094094-31.401645 2.686944-10.568819 6.617182-20.792057 11.909766-30.314914 4.990109-8.977792 11.737477-15.7122288 18.98913-22.7640936-1.823561-1.2682581-4.970751-1.4575505-7.142279-2.4311919-3.171388-1.4216338-5.765897-3.5305435-8.529791-5.4899615-5.160947-3.658194-9.836483-7.659056-15.376854-10.7416077-5.145461-2.8641378-10.573069-5.287564-16.059237-7.1363183-2.783253-.9382102-6.082891-.7003815-8.997297-1.4789068-2.274127-.6076768-4.857504-.9784953-7.060489-1.7900254-1.136337-.4183844-2.132811-1.3376652-3.303994-1.5983061-12.732014-2.8325889-26.8254061-2.2685951-40.0462195-2.3404291-2.8234213-.0155315-7.3315068-.844049-9.9531171.3863505-2.7358246 1.2842756-5.8021938 4.4493388-8.2519983 6.2660593-5.7673486 4.2765494-11.8594342 7.988619-17.4598168 12.4578582-6.6317009 5.2909614-13.4056859 10.5353279-20.2798507 15.520995-2.358336 1.7099397-6.6621904 5.8534993-8.5859304 1.6550936-1.649819-3.6023775 1.6701451-7.217374 2.8785927-10.2877916-3.3988495 1.9477689-10.4990235 7.3513348-12.27128422 1.1012925-1.71370159-6.0432771 3.72165072-11.7094254 7.28407872-15.8107579-3.9965399.8163834-11.6992438 3.0781833-15.31393941.2980141-3.70568005-2.8505473-.52654824-9.075836 2.11103257-11.2628901 8.03760404-6.6645435 18.76118494-10.7697588 28.38278934-14.5298798 9.7638886-3.815938 19.5979514-6.6732804 29.6154349-9.3442428 2.0607008-.5499183 3.8329616-2.2943194 5.9715799-2.4865238 2.4643232-.2218117 1.5607702 1.3934823 2.7324366-1.347858.5096097-1.1925413.3213492-2.6500917.9916335-3.7926404 3.2599531-5.5506316 7.4442695 2.7447378 8.7011134 5.644307 6.966117-2.8651082 14.0682264-4.2183052 21.1863068-6.3272153 5.625065-1.6667426 11.408384-3.4868605 17.101203-5.0973009 3.066369-.8678322 6.167099-1.301263 9.26783-1.8739934 2.961834-.5470061 6.482641-1.4318261 9.635155-1.7366352 5.376794-.5207964 11.07784-1.0255758 16.378651-1.1478877 25.890397-.5989401 53.416093-2.2496658 74.39091 16.2602055 0 1.6876134 5.400507 6.2524692 6.732849 7.1824281 3.712939 2.5928187 7.007253 5.138557 10.449659 8.2177112 3.721167 3.3286316 6.697519 6.2068448 8.904376 10.7270469 1.900994 3.8950522 2.365596 8.1934429 3.379491 12.3738896 2.705336-3.0854635 3.538714-.1834675 4.059455 2.3559611.559942 2.7301765 1.226838 4.3707096 2.968125 6.6092118 3.720683 4.7856971 8.608677 7.2945473 14.588 7.8866926 1.097621.1087217 4.730223.4188699 5.751862-.0019414 1.853566-.7625084 1.298948-1.2182659 2.094578-3.2694171.605918-1.5628749 1.498823-2.7068793 2.289614-4.1542372.965499-.6892179 1.330405-1.6104407 1.094717-2.7626964.026133-.5072062.052752-1.0144125.078401-1.5216188 2.010853-1.1823486 4.299983 4.2649003 5.038989 5.247764 2.144427 2.8510327 4.45727 3.3349418 7.941296 3.3349418-.227461-1.9074838-.731747-2.015235 1.062292-2.88695 1.106816-.5377842 2.692752-.1601704 3.742461.2664652 3.017006 1.2255461 2.952155 1.8269131 6.361652.4276065 2.52143-1.0347978 4.778618-2.3802287 7.060489-3.8557376 1.941647-1.2556391 2.247509-1.4696846 2.992807-3.6649898.570589-1.6798472.478637-3.9134961.691579-5.6559556-2.302197 1.3828041-3.650509 4.0513397-6.176779 5.4239512-2.562567 1.3925118-5.653618 2.2632564-8.443163.9814077-5.805581-2.6675647-4.169313-10.0446241-2.457063-14.7249969-2.654036-.4557576-5.432449-2.0365902-7.129212-4.1192909-1.142629-1.4027041-1.969232-3.150988-3.190747-4.7531772-2.78664-3.6528553-9.990381-4.5274826-11.355632 1.0508148-.69545 2.8398693.954853 3.8537961 3.55662 4.214908 3.096859.4295475 3.851353-.3334458 2.723726 3.3310585-1.242325.6401961-1.628525 1.6376207-1.157632 2.9917883-.076949.4504188-.154867.900837-.231816 1.3517407-.282149 1.1347833-.886615 2.0123226-1.216675 3.1029375-.936462 3.0912878-1.098105 3.9382497-4.589875 4.8803427-6.124995 1.6531522-13.23872 2.5156455-19.552943 3.0573126-2.100385.1800707-4.326601.1577435-3.630666-2.6976571.57446-2.3574171 4.485339-3.1553567 6.467638-3.8829187 2.297842-.8430785 6.541685-1.2357388 8.509465-2.4525482 2.097482-1.2968947 1.896639-3.6528552 1.426229-6.1578226-.586075-3.1262346-1.182797-5.5045222-1.087457-8.8642173.104535-3.679065 1.425746-5.0138182 3.614696-7.9264922-5.770737 1.6036452-12.214177 5.7981676-18.206083 5.7899165-7.972754-.0111634-6.495225-8.2177112-4.904933-13.6144822-2.913438.4926453-7.43459 1.7104255-8.862755-1.9409737-1.670629-4.2692686 2.496748-9.198148 5.053508-12.0443271-3.351421-.3266505-6.54846.4839087-7.76949-3.5635482-.849834-2.8175426.193583-6.1432621 2.12797-8.26915981 5.066092-5.56761945 12.942053-6.68056089 19.883004-7.46588111 3.838285-.43391611 7.750616-.79551288 11.601484-.43343075 3.732782.35091874 6.655899 1.92544209 10.062492 3.50676055 3.56146 1.65363781 5.981259 3.9596059 8.359437 7.11544772 1.117463 1.4827894 2.049086 2.9204399 2.67533 4.682314.305379.8595811.591883 5.1094351 1.265071 5.5957706.995989.7212521 7.09727-1.7880838 8.835653-1.7177059 1.920353.0776583 3.11283.6765984 4.247716 2.2904363.614628.8751128 1.241357 4.1090983 2.391729 4.4619585.55607.170363 4.024609-1.2609777 4.839597-1.3857165 1.185218-.1815264 2.330751-.4421673 3.54549-.5591402 3.772467-.3640236 7.693025-.4659502 11.352729.6931009 7.303437 2.3117925 11.464039 8.9457583 9.554818 16.761102-.356195 1.4565798-1.3517 2.520014-1.787748 3.9008768-.586075 1.8565203-.372649 3.7994355-.812568 5.7190532-.927268 4.0440592-2.648228 6.4456442-6.13419 8.5477591 11.208508 8.9321681-.948562 29.2320649-12.528267 18.9898972-3.289959 4.6187315-10.4545 7.9235798-15.828873 9.2088259-7.242458 1.7322669-13.967563.7168839-17.840694-5.9724136-.439435 1.1474024-1.152308 2.3836266-1.369122 3.5795653-.170353.4445945-.340223.8887029-.510093 1.3328119-.506222.6736864-.26279 1.0629488.729327 1.1668166.67706 1.9152495 1.174086 2.1098807.176162 4.4274977 7.40168-2.5661238 15.202628 4.1066713 20.313243 9.0525391 3.442407 3.332029 5.273226 8.220138 7.429267 12.390877 2.529174 4.892477 4.454366 10.004824 6.789956 14.976901 2.098449 4.468753 3.39401 9.323372 5.685559 13.693111 2.167656 4.134823 5.673461 7.116904 9.311386 9.766511 3.374168 2.457401 6.759467 4.913833 11.077356 5.936011 4.919451 1.16439 10.410459-.483424 15.218599-1.719162"/><path d="m294.073009 91.6804822c-.716958.2990798-1.433916.5976386-2.150443.8967184.25655-.7180003.513964-1.435479.77181-2.1529582.269939.7221684.729051 1.1405678 1.378633 1.2562398"/><path d="m142.466814 14.6439254c-1.656076.29657-3.159002.3498557-4.838495.2976465 1.638746-.2863434 3.182419-.2809611 4.838495-.2976465"/><path d="m23.3062268 298.722944c.053761 1.436432.1069845 2.872382.1596703 4.305916-.053761-1.437882-.1064469-2.871899-.1596703-4.305916"/><path d="m348.018994 39.8297258c-.030644-1.2566547-.06075-2.5133094-.091394-3.7676767.505892 1.2493352.398369 2.5064474.091394 3.7676767"/><path d="m148.380531 14.407092c-1.254425.0059206-2.50935.0123795-3.763274.0183001 1.437632-.4257475 2.730601-.4322064 3.763274-.0183001"/><path d="m156.78231 156.089466c-.046235 1.07708-.092469 2.153709-.137629 3.229437.046235-1.077079.091932-2.153258.137629-3.229437"/><path d="m181.174779 13.0649574c-1.075534.0812742-2.150599.1625484-3.225664.2438225 1.075534-.0812741 2.150599-.1625483 3.225664-.2438225"/><path d="m185.475664 13.3028593-3.225664-.2319812c1.075377.0775065 2.150287.1544747 3.225664.2319812"/><path d="m47.8473451 244.16379c-1.0823378.023683-2.1864895.398297-3.2256637-.270196 1.0749119.090424 2.1507519.18031 3.2256637.270196"/><path d="m480.086283 148.644437c-1.043207.692176-2.150442.151783-3.225664.231981 1.075222-.077507 2.150443-.154475 3.225664-.231981"/><path d="m266.117257 1.14242252c-1.031496.70455555-2.141902.28634343-3.225664.2518961 1.075563-.08396537 2.150613-.16793074 3.225664-.2518961"/><path d="m92.4690265 249.618459c-.8964619.00915-1.7924798.0183-2.688053.026912.8933507-.497334 1.7898132-.406371 2.688053-.026912"/><path d="m251.60177 19.6783066c.539162-.0215295 1.078748-.0430591 1.612832-.0651269-.540855.0215295-1.076632.0430591-1.612832.0651269"/><path d="m169.884956 13.090812c-.717259.101189-1.434518.202378-2.150443.3030288.650517-.7912121 1.435853-.1824632 2.150443-.3030288"/><path d="m375.252212 154.610115c-.717116.089347-1.433779.178157-2.150442.267505.717116-.089348 1.433779-.178158 2.150442-.267505"/><path d="m44.0840708 323.264245c.5390903-.034448 1.0786738-.068895 1.6128319-.102804-.54057.034985-1.0767009.068894-1.6128319.102804"/><path d="m379.015487 154.171719c-.717113.022606-1.433778.045212-2.150443.067818.717561-.022606 1.433778-.045212 2.150443-.067818"/><path d="m291.670427 61.3593074c-.01129-.53909-.02258-1.0786046-.033332-1.6147187.010752.5399404.022042 1.0773295.033332 1.6147187"/><path d="m279.351617 61.8975469c-.042471.718314-.084942 1.4366281-.125801 2.1529582.043009-.7188103.084405-1.4361324.125801-2.1529582"/><path d="m160.745575 290.420061c.539737-.026374 1.078493-.053286 1.612832-.07966-.540718.026374-1.07653.053286-1.612832.07966"/><path d="m9.13938053 68.0932222c.53961478-.0037677 1.07872847-.0080736 1.61283187-.0118412-.5411179.0037676-1.07722541.0080735-1.61283187.0118412"/><path d="m406.433628 153.341667c-.717301-.000538-1.434115-.001615-2.150442-.002691.717789-.357929 1.434602-.738465 2.150442.002691"/><path d="m405.515585 247.590188c-.025268-.718179-.050536-1.436883-.075266-2.152959.44998.705035.516106 1.420585.075266 2.152959"/><path d="m394.068584 153.010467c-.716814.079121-1.433628.158242-2.150442.237363z"/><path d="m116.419848 149.630592c-.018278-.718166-.036019-1.436331-.054298-2.152959.018816.718166.036557 1.435818.054298 2.152959"/><path d="m74.7278761 55.7325512c.3596615-.0166854.7201601-.0333708 1.0752212-.049518-.3617528.0161472-.7180687.0328326-1.0752212.049518"/><path d="m193.002212 14.4277799c-.716814-.1098008-1.433628-.2196017-2.150442-.3288643.716814.1092626 1.433628.2190635 2.150442.3288643"/><path d="m54.2986726 244.231842c-.7168142-.093115-1.4336284-.186769-2.1504425-.280423.7168141.093654 1.4336283.187308 2.1504425.280423"/><path d="m113.973451 244.502038c-.716987.085042-1.433975.170084-2.150442.255664.716987-.08558 1.433455-.170622 2.150442-.255664"/><path d="m401.595133 152.933286c-.714008.518863-1.431699.521555-2.150443.01238.717165-.003768 1.433804-.008074 2.150443-.01238"/><path d="m100.533186 248.128427c-.269535.815035-1.011.464456-1.612832.456729.5376106-.152108 1.0757078-.304215 1.612832-.456729"/><path d="m253.752212 34.7506284c.359501-.0231443.719001-.0462886 1.075222-.0683564-.36073.0236825-.718181.0457504-1.075222.0683564"/><path d="m154.831858 13.5913557c-.716989.0893478-1.434504.1786955-2.150442.2675051.716989-.0893478 1.433979-.1781573 2.150442-.2675051"/><path d="m419.336283 184.864828c.359796.012918.71959.026374 1.075221.040906-.361044-.012379-.718341-.026911-1.075221-.040906"/><path d="m158.928183 179.772006c-.042472.539317-.084943 1.078636-.128489 1.614718.041933-.540704.084942-1.077711.128489-1.614718"/><path d="m263.966814 73.4581248c.359936.0080736.72029.0161472 1.075221.0231443-.361187-.0086118-.718621-.0156089-1.075221-.0231443"/><path d="m97.8451327 282.269499c.360076.024759.720152.050057 1.0752213.074277-.3613276-.025297-.7184833-.050056-1.0752213-.074277"/><path d="m385.466814 153.847825c-.716814-.001614-1.434165-.003767-2.150442-.00592.718961-.558693 1.435239-.381074 2.150442.00592"/><path d="m455.893805 179.003131c.359578-.025836.719157-.051671 1.075222-.076969-.36075.025298-.717986.051133-1.075222.076969"/><path d="m466.646018 307.458033c-.716995.097422-1.43399.194843-2.150443.291726.717536-.097421 1.433989-.194304 2.150443-.291726"/><path d="m327.942478 23.8214055c-.717157.0871948-1.4338.1738514-2.150443.2605079.717157-.0866565 1.4338-.1733131 2.150443-.2605079"/><path d="m249.791904 29.0649351c-.04731.5393215-.09462 1.0781794-.143542 1.6147186.047309-.5402491.095157-1.077252.143542-1.6147186"/><path d="m188.163717 179.251716c-2.183276 1.21727-4.541135 2.237468-6.690684 3.480983-1.518176.877999-2.754638 2.940822-4.061529 1.216793 2.880119-1.409094 7.546239-4.999827 10.752213-4.697776"/><path d="m49.8691184 287.958153c-.4408407-1.260149-.434927-2.517105.0430089-3.767677-.0139779 1.257413-.029031 2.512545-.0430089 3.767677"/><path d="m52.5698276 305.720058c.0365575.717803.0736526 1.435607.1102101 2.152931-.1198871.008614-1.0499535-2.106992-.1102101-2.152931"/><path d="m70.0716305 43.5974026c.0575244-.8978644.1161239-1.7957288.1731107-2.6911977-.0575244.8983435-.1155863 1.7947706-.1731107 2.6911977"/><path d="m325.254425 50.3388528c-.719185-.0096883-1.437421-.0188384-2.150443-.026912.720133.0096883 1.435051.0183002 2.150443.026912"/><path d="m165.04646 279.72255c.896336-.071586 1.792195-.143172 2.688053-.21422-.895858.071586-1.792194.142634-2.688053.21422"/><path d="m30.7913794 311.640693c.0806416.718312.1618208 1.436623.2424624 2.152958-.0811792-.718312-.1623584-1.435635-.2424624-2.152958"/><path d="m130.639381 278.127208c.716961-.084504 1.433922-.168469 2.150442-.252973-.716961.084504-1.433923.169007-2.150442.252973"/><path d="m124.188053 276.85259c.709415.169545 1.517543-.601214 2.150443.291726-.717444-.09796-1.433471-.194843-2.150443-.291726"/><path d="m30.4379004 297.108225c-.0419336.539198-.0844048 1.078396-.1258008 1.614719.0430088-.540636.0844048-1.077438.1258008-1.614719"/><path d="m45.9369458 64.0505051c.0188164.5389925.0376327 1.077985.0575243 1.6147186-.0182787-.5403479-.0381703-1.0775335-.0575243-1.6147186"/><path d="m37.7894569 303.5671c.0747278-.538539.1494557-1.077525.2241836-1.614719-.0752655.539434-.1494558 1.077076-.2241836 1.614719"/><path d="m425.25 176.954591c.717158-.095268 1.4338-.190537 2.150442-.285805-.716642.095268-1.433284.190537-2.150442.285805"/><path d="m30.2978529 308.411255c.0516106.538961.1026836 1.077489.1542942 1.614719-.0516106-.53896-.1026836-1.076623-.1542942-1.614719"/><path d="m421.587921 174.38961c.457506.536985.432776 1.076323.010752 1.614719-.003226-.540279-.006989-1.077263-.010752-1.614719"/><path d="m256.977876 172.555828c-.359981-.032832-.719568-.066203-1.075221-.100112.361161.032832.717994.066741 1.075221.100112"/><path d="m22.0420354 57.4616457 2.1504425-.2782698z"/><path d="m382.437931 182.958926c-3.98001.579021-.310946-4.934285.767876-5.699225 1.254976-.889051 2.582943-1.242595 3.79899-2.310643.761064-.668025 1.623342-2.279492 2.791214-2.168732 2.576131.242784 1.414586 3.940406.646223 5.526162-1.504608 3.104262-4.652997 4.705346-8.004303 4.652438"/><path d="m253.268783 119.489177c-2.343298-.832064-14.188021-3.085821-8.941897-7.88815 3.465237-3.172619 13.094418 4.938013 8.941897 7.88815"/><path d="m198.924615 157.095048c-.366624-4.19562 11.002125-8.842329 9.538049-3.330124-.339987 1.281389-3.562118 4.443967-4.441145 5.281207-2.353758 2.242555-5.09545 1.754289-5.096904-1.951083"/><path d="m92.4690265 41.1375726c.7703939-2.7190292 1.6191004-3.9968351 4.3105249-5.0472349 1.7205298-.672374 4.5709396-1.2832203 4.8205036 1.5219476.18446 2.0702819-2.7329401 4.0839583-4.1444636 4.965034-2.524419 1.5765841-3.9147128 1.4929065-4.9865649-1.4397467"/><path d="m246.217341 141.212573c.027923 2.853587-.969331 6.208427-3.47942 7.922355-1.965089 1.341444-6.433287 1.972449-4.737456-1.914232.516578-1.183568 1.974563-1.769678 2.866108-2.64687 1.466463-1.444554 1.587629-3.008996 2.40837-4.361292.280228-.46277-.163052-1.556054.718521-1.825921 1.472446-.450437 2.326594 1.790893 2.223877 2.82596"/><path d="m299.55097 117.874447c2.026143-.003372 3.941733.725694 2.762833 3.040953-.893843 1.755483-4.774599 3.102049-6.530061 3.347982-2.253694.315783-4.771624-.381754-3.53472-3.241265 1.030671-2.381229 5.069572-2.595147 7.301948-3.14767"/><path d="m316.115044 155.553188c-.083714 5.231617-9.501074-.235941-8.531778-4.160842 1.221379-4.945252 7.777411 1.850902 8.531778 4.160842"/><path d="m208.051634 63.5063379c0 4.443725-9.355449-1.2473179-8.548772-5.1345851 1.076367-5.1817004 8.744344 1.7779861 8.548772 5.1345851"/><path d="m198.82437 44.6738817c-3.95238-3.1631519 5.109779-11.3014293 7.712103-7.7179542 2.356151 3.2455587-5.326761 7.5243714-7.712103 7.7179542"/><path d="m201.55673 111.415584c-2.165812-.194822-4.662432-.173175-6.568767-1.4164-1.391692-.907203-3.806926-4.410567-1.687552-5.922902 1.304562-.931311 4.598759 1.719949 5.935396 2.416588 2.28023 1.188123 3.796393 1.928055 2.320923 4.922714"/><path d="m293.239269 141.018218c-5.102861.066955-6.716383-6.107227-.567813-5.310944 1.634387.211386 5.663223.604983 5.701971 2.760448.045207 2.485455-3.204688 2.231505-5.134158 2.550496"/><path d="m241.387168 84.1363408c-.367197 2.3449525-1.000109 4.0688197-3.055725 5.4394741-1.76686 1.1776913-5.236356 2.7451018-4.996624-.7728006.142663-2.0936737 7.108619-9.9274079 8.052349-4.6666735"/><path d="m142.03398 34.4473304c2.030442.9737422 4.682038 11.3452393 1.959346 12.2570507-4.328429 1.4501326-3.347119-10.4210417-1.959346-12.2570507"/><path d="m230.269485 131.868687c-3.154533-3.583955 5.111567-10.70901 7.101379-7.063484 1.643529 3.011093-5.184245 5.790678-7.101379 7.063484"/><path d="m173.658617 36.8534199c.556521-5.4919675 6.863759 2.6173894 6.418445 5.2580248-.780392 4.6244503-6.709818-2.7984107-6.418445-5.2580248"/><path d="m178.486726 173.441716c-.033235 3.665794-7.221353-.134779-6.383372-4.004855.94623-4.371621 6.330197 1.961102 6.383372 4.004855"/><path d="m323.641593 176.011478c2.131093-6.376878 3.376655-2.038945 3.975179 1.985378.191508 1.285602 1.05712 4.842434-1.169981 4.433866-2.070832-.379837-2.637182-5.070336-2.805198-6.419244"/><path d="m349.703013 179.772006c1.6701 1.145221 5.008424 9.710543 1.25703 8.493805-2.861019-.927334-3.454134-6.80458-1.25703-8.493805"/><path d="m265.435317 144.786436c.18992 2.300172.501064 3.087588 1.724427 4.981876 1.050111 1.625925 1.735538 2.384691.255077 4.168196-1.755237-1.340852-3.87617-2.383259-4.399963-4.61849-.405599-1.727158.136883-4.460433 2.420459-4.531582"/><path d="m215.462981 121.103896c-1.236648-.983248-5.547094-6.229334-4.579261-8.132568 1.194568-2.350427 7.203054 4.519757 4.579261 8.132568"/><path d="m296.647348 159.318903c1.335625 1.185316.719727 3.690232.948624 5.222887.231257 1.553532 1.522992 3.627123.167543 5.003665-3.334345-1.908937-3.221076-7.501939-1.116167-10.226552"/><path d="m182.250084 139.389703c-.022302-1.849676 4.37733-5.214554 5.291257-3.053488.784569 1.855079-4.104739 7.41-5.291257 3.053488"/></g></g></g></svg>