<svg height="172" width="172" xmlns="http://www.w3.org/2000/svg">
  <path d="M166.701 91.969l-54.728-61.592-.018-.016c-.066-.074-.148-.128-.217-.198a5.184 5.184 0 00-.62-.547c-.105-.075-.224-.128-.333-.194-.21-.126-.42-.254-.647-.349-.029-.013-.053-.035-.084-.046L66.144 11.37a5.115 5.115 0 00-6.07 1.776L4.963 90.225a5.158 5.158 0 00-.757 4.438 5.136 5.136 0 003.015 3.335l15.028 6.042-.097 35.149a5.142 5.142 0 003.22 4.787l43.917 17.657c.018.007.038.009.056.016.214.084.432.14.65.19.088.022.172.055.26.072a5.102 5.102 0 001.654.04l.017-.002.04-.005 24.328-3.43a5.135 5.135 0 004.412-5.078l.016-5.676 17.393 6.991c.018.008.038.01.055.017.211.082.43.137.646.19.09.022.174.055.265.073.311.057.625.09.94.09.237 0 .476-.019.712-.051l.015-.002.046-.008 24.324-3.427a5.135 5.135 0 004.412-5.078l.125-44.1 13.939-1.966a5.134 5.134 0 004.094-3.327 5.162 5.162 0 00-.986-5.193zm-24.018 54.811l-17.54 2.472-2.563.362-.279.04a2 2 0 01-2.278-1.987l.103-37.017a2 2 0 00-2.28-1.986L97.41 111.55a2 2 0 00-1.72 1.975l-.076 26.638-.007 2.77-.01 2.766-.016 5.99a2 2 0 01-1.72 1.975l-17.542 2.472-2.564.362-.28.039a2 2 0 01-2.277-1.986l.12-43.937a2 2 0 00-2.279-1.986l-11.386 1.602a2 2 0 01-1.906-3.143l2.802-3.919 48.139-67.33a2 2 0 013.122-.165l.083.093 1.748 1.968 48.755 54.87a2 2 0 01-1.215 3.31l-12.928 1.822a2 2 0 00-1.721 1.975l-.127 45.095a2 2 0 01-1.72 1.974z"/>
  <path d="M100 86.5c2.34-.561 6.129 1.548 9.793 3.204 2.537 1.146 5.252 1.748 6.912 1.748 2.403 0 3.67-.437 4.605-.847.987-.432 1.633-.845 2.932-1.565 1.167-.647 2.845-2.736 4.135-5.078 1.511-2.745 2.552-5.81 2.552-6.91 0-1.042-.795-2.642-2.552-3.49-1.68-.81-4.134-.81-5.06.577-.517.776-.94 1.94-2.007 3.432-1.208 1.688-2.768 2.992-5.049 2.992-1.451 0-3.945-1.134-7.7-2.652-3.754-1.518-5.763-2.238-8.892-2.326-2.535-.071-5.54.932-6.886 2.326-1.93 2-3.416 4.293-4.491 6.372-1.088 2.102-2.036 3.91-2.036 5.096s1.188 2.9 2.758 3.876c1.571.977 3.769.707 4.653-.265 2.527-2.776 2.373-5.54 6.334-6.49z"/>
</svg>
