<svg height="172" width="172" xmlns="http://www.w3.org/2000/svg">
  <g fill="none" fill-rule="evenodd">
    <path d="M108.553 31.431l-55.52 76.822L72 160.06l25.04-3.202v-42.299l20.558-2.874v40.749l28.784-3.744V101.5l19.353-6.172z" fill="#fff"/>
    <g fill="#000">
      <path d="M166.701 91.969l-54.728-61.592-.018-.016c-.066-.074-.148-.128-.217-.198a5.184 5.184 0 00-.62-.547c-.105-.075-.224-.128-.333-.194-.21-.126-.42-.254-.647-.349-.029-.013-.053-.035-.084-.046L66.144 11.37a5.115 5.115 0 00-6.07 1.776L4.963 90.225a5.158 5.158 0 00-.757 4.438 5.136 5.136 0 003.015 3.335l15.028 6.042-.097 35.149a5.142 5.142 0 003.22 4.787l43.917 17.657c.018.007.038.009.056.016.214.084.432.14.65.19.088.022.172.055.26.072a5.102 5.102 0 001.654.04l.017-.002.04-.005 24.328-3.43a5.135 5.135 0 004.412-5.078l.016-5.676 17.393 6.991c.018.008.038.01.055.017.211.082.43.137.646.19.09.022.174.055.265.073.311.057.625.09.94.09.237 0 .476-.019.712-.051l.015-.002.046-.008 24.324-3.427a5.135 5.135 0 004.412-5.078l.125-44.1 13.939-1.966a5.134 5.134 0 004.094-3.327 5.162 5.162 0 00-.986-5.193zm-24.018 54.811l-17.54 2.472-2.563.362-.279.04a2 2 0 01-2.278-1.987l.103-37.017a2 2 0 00-2.28-1.986L97.41 111.55a2 2 0 00-1.72 1.975l-.076 26.638-.007 2.77-.01 2.766-.016 5.99a2 2 0 01-1.72 1.975l-17.542 2.472-2.564.362-.28.039a2 2 0 01-2.277-1.986l.12-43.937a2 2 0 00-2.279-1.986l-11.386 1.602a2 2 0 01-1.906-3.143l2.802-3.919 48.139-67.33a2 2 0 013.122-.165l.083.093 1.748 1.968 48.755 54.87a2 2 0 01-1.215 3.31l-12.928 1.822a2 2 0 00-1.721 1.975l-.127 45.095a2 2 0 01-1.72 1.974z" fill-rule="nonzero"/>
      <text font-family="Nunito-Black, Nunito" font-size="120" font-weight="700" letter-spacing="5.06" transform="rotate(-5 190.663 52.192)">
        <tspan x="68.236" y="151">~</tspan>
      </text>
    </g>
  </g>
</svg>
