<svg height="664" viewBox="0 0 863 664" width="863" xmlns="http://www.w3.org/2000/svg"><g fill="none" fill-rule="evenodd" transform="translate(-81 -52)"><path d="m0 0h1024v768h-1024z" fill="none"/><g fill="#000"><path d="m350 354.11524c3.139828 31.701626 6.279657 63.404297 9.419485 95.105923 17.094272-9.754106 34.189591-19.509256 51.283863-29.263361v72.221974 18.98356c0 1.679508-.997419 7.449616 0 8.904423.845661 1.233241 7.109618 1.268775 8.590571 1.476754 9.665438 1.353431 19.353902 2.557409 29.055971 3.628657 25.570762 2.823914 52.939599 6.869574 78.607696 3.624476 22.312667-2.820779 43.942945-10.756375 64.328804-19.991056 7.156715-3.241962 14.214003-6.71176 21.139417-10.419846 1.468393-.78593 6.798775-2.642064 7.597338-4.242142.652038-1.307446-.878105-5.900748-1.082194-7.275081-.861359-5.792055-1.722719-11.585155-2.584079-17.377211l-12.030775-80.888109 22.727124 22.694781c1.780283 1.77775 5.160831 6.825679 7.62455 7.6137 1.806448.577951 6.279657-1.210249 8.065172-1.554094 12.868064-2.480069 25.737173-4.960139 38.606283-7.439164 2.99749-.577951 9.7544-.556004 12.281962-2.367197 1.360592-.976142 1.424436-2.960825 1.904829-4.842041 3.138782-12.296882 6.277564-24.592719 9.416346-36.888556.565169-2.21461 3.71965-9.198102 2.917947-11.428388-.287818-.799516-1.679808-1.346114-2.531749-1.867629-19.421931-11.862112-38.845956-23.72527-58.267888-35.588427-10.639831-6.498556-21.279663-12.997113-31.919495-19.495669-4.456463-2.722538-9.931277-7.627286-14.981167-9.150026-3.134596-.945833-7.69572-.237242-10.940209-.330258-6.592593-.188121-13.184139-.376243-19.776732-.564365-1.031957-.029263-4.646946-.765027-5.515632-.156768-.723207.505838-.423877 1.211294-.660411 2.417363-.579821 2.945148-.584008 6.121268-.869732 9.111356-.229207 2.399596.226068 6.799551-.85508 8.971311-.690762 1.387919.18525.835051-.749372 1.506018-1.112546.798471-4.664739.541372-5.9887.695004-6.459673.750397-12.920393 1.500793-19.380067 2.251189-7.68002.891487-15.445862 2.56577-23.162514 1.794471-11.697953-1.167399-24.310644-1.109917-35.797183-3.57431-2.98493-.640659-4.060844-2.322257-6.363385-4.621521-4.494141-4.487746-8.943278-9.027747-13.486609-13.468462-2.227185-2.17594-1.273724-1.807012-3.568939-.981368-2.877129 1.033624-5.795076 3.529371-8.399041 5.115863-9.977327 6.077373-19.954655 12.154746-29.931983 18.232119l-60.91267 37.103851c-1.270584.774434-2.541168 1.547822-3.811752 2.322256"/><g transform="translate(80.999793 52.973204)"><path d="m851.615616 305.082724c-12.556912 47.670802-37.810907 99.650272-88.689203 114.84477-12.369666 3.693893-24.403548 6.482902-37.251264 5.076353-1.222845-.134056-2.245892.037704-3.409111.059698-2.083753.039798-.283483.788631-2.621428.067028-1.822238-.56241-3.527317-1.970006-5.425917-2.592114-5.049334-1.651621-10.431316-1.971053-15.562243-3.305337-12.607123-3.280202-25.600242-7.329136-37.816137-11.852505-5.752288-2.129199-11.039078-5.095205-16.449303-7.948101-5.500187-2.898978-11.328837-4.699318-16.890741-7.35846-4.395547-2.101969-11.926137-4.841754-15.0162-8.783862-3.295091-4.204984 1.263641-13.156416 2.567033-17.626372 4.431112-15.210208 9.708488-30.197337 13.039145-45.710221 11.500391 13.328177 27.462229 21.582095 43.985803 26.905616 8.965785 2.888504 18.188901 4.976858 27.514532 6.283911 8.466814 1.185565 17.601016 2.621439 26.087705.93735 6.407121-1.271444 14.449235-4.216504 19.024704-9.106435 1.632901-1.74588 3.592173-4.946486 2.67687-7.482044-1.161128-3.219458-4.545134-1.703987-6.376786-4.106536-1.595242-2.092543-1.345234-6.986663-1.853619-9.534789-.899612-4.509754-2.13501-8.895924-3.643429-13.23706-2.926878-8.42882-6.574491-16.876492-7.448998-25.845729-.75944-7.781577 1.012587-15.140038 4.894518-21.892101 1.833744-3.192227 6.440595-11.875545 10.936563-11.515268 4.937406.395887-1.720769 21.204013-1.93835 25.448795-.863 16.826221 1.394399 34.755268 10.028583 49.503609 3.305551 5.647142 8.087095 12.222208 15.144865 12.921817 7.477242.740454 13.507781-5.142334 17.066479-11.094246 8.683349-14.521073 4.305586-34.446309-.092053-49.665943-5.394535-18.672644-19.47451-31.543142-28.377532-48.312808 13.292292 1.336379 20.409688 9.779861 27.231049 20.492884 7.510716 11.793854 13.357148 25.954649 16.240091 39.677665 1.456117 6.933249.450852 13.895823.460267 20.897148.003138 2.326095.002092 10.907824 3.795108 10.56954 4.052439-.361325 5.442653-10.039596 6.038908-12.991988 1.366155-6.771962 2.844239-13.544971 4.030471-20.350448 2.10049-12.041022 3.033576-24.373198 5.548306-36.330435.4247-2.021325 1.270963-7.629716 4.297217-6.115293 2.332715 1.165665 1.958225 9.839558 2.044002 11.855646.209212 4.96848.504201 9.935912.543952 14.909628.059625 7.371029-1.41009 15.000745-.689354 22.326738.470727 4.787294 3.039852 10.076253 6.225106 3.620581 3.158057-6.402259 3.802431-14.387016 5.562951-21.272088 1.850481-7.228594 3.760588-14.564013 7.686453-20.984076 1.088949-1.781489 2.259491-4.609249 4.680075-3.771395 1.758428.60954 3.056589 4.777868 3.600541 6.249351 2.453012 6.648378 2.03668 14.040353 1.881863 21.000832-.189337 8.528316-1.10464 16.868114-3.281492 25.136694zm-244.85036 12.370928c-.670525-.216795-3.52104-.487003-4.228177-.548795-.82848-.072265.111928-1.599256-1.89337-1.164618.387042.959343 1.074304 1.599255 2.063878 1.920782-3.015793 1.020088-5.239718-1.498713-7.301503-1.823382-1.971825-.310006-2.05551 0-4.003274 2.083117-2.108859-2.572215-1.713448-.967722-3.447816-.966675-.630775.001047-.657972.954107-1.685204.839949-.896474-.100542-.990619-1.459962-1.520972-1.620201-2.877713-.87137-5.838064 3.510612-9.101773-.290108-.790822 3.954675-9.850753-.999142-13.337273-.303722-3.65389.726839-2.077476 2.037035-5.030505-.202133-2.813903-2.133388-2.029358-.716366-5.302482 1.029515.076363-.040846-1.847343 1.258877-1.668466 1.279823-2.265768-.264972-2.137102-2.607823-5.006446-2.483192-3.036714.131962-4.333829 2.512517-7.113212-.416833-.604623 2.194132-.729105 1.248403-2.153839 1.801388-.7835.186422-1.468669-.019899-2.056555-.616871-.177831.603256-.569057.972959-1.174726 1.10911-1.551308.139294-4.463541.355041-5.872585-.391697-2.114088-1.121678-.41424-1.552126-1.880817-2.813097-.656926 3.477097-2.097351 2.73769-5.135111 3.062359-2.317024.248215-2.827502-.462915-5.040966-.80853-2.179991-.340378-4.997032.505855-7.123673.866133-.877645.149766-2.053417.7614-2.946753.5467-.805466-.193754-1.150666-.819003-1.631854-.982385-.583702-.196896-.459221-.707987-1.468669-.955154-.695631-.169666-1.941489.482813-2.637119.595924-4.957281.804341-9.718949.812719-14.448189-1.137388 2.329577 4.092921-5.4437 1.883079-6.82973.188517-1.732276 2.713603-3.827536.798057-7.319286 1.009615-3.362039.204227-8.418696 1.233742-9.781713-2.953438-.266745.850423-2.17476 3.321047-2.9342 3.698082-2.204049 1.092353-2.466611-.523659-4.515843-1.181376-2.788798-.896504-2.207188.804341-3.936326 1.149956-2.919556.584404-4.497015-1.471482-7.077646-2.563836-.108791 1.698751-.165278 2.743975-1.633947 3.801767-1.3013-4.737022-5.943716.387508-5.146618-5.943533-1.766797 1.149956-4.252237 2.033893-4.755392 4.359987 2.954075-.812719.314864 1.118536.191429 1.182423-.39018.204227-1.709263-1.647432-2.015759-1.908215-.083684.873464-.166323 1.746928-.250008 2.620392-1.176818-.588594-2.281458-1.642196-3.236512-2.170045-.860907-.475482.372398-1.465198-1.081626-1.533274-.766763-.036656-1.565953 1.623344-2.370374 1.764732-1.230167.215747-.639143-1.548984-1.153804-1.489287-.784546.090069-2.061786 1.236883-2.654902 1.214889-1.944627-.072265-.628683-.977148-2.111997-1.391886-2.651763-.742549-2.481255.991811-4.387178 1.61706-4.361026 1.431684-3.922727-5.15595-8.35907-.762448-1.061752 1.051508-1.744829 2.674852-3.198853 2.583735-3.011609-.188517-1.954042-3.757779-1.342096-5.505754.632867.312101-11.00142 6.288101-10.909366 6.054549.073224-1.433779 1.902784-2.538701.267791-3.811193-1.336865 2.868606-2.743817 2.918877-5.827603 3.45301-1.499005.259735-1.793994.606397-3.397605-.016757-1.022001-.395887-1.708217-2.025514-2.723942-2.115584.137034.012568-1.728092 1.431685-2.012621 1.559458-1.683111.758258-2.748001-.10159-4.382994.210511-1.394398.266019-1.94358 1.451583-3.330656 1.126914-1.851528-.432542-.763625-2.643432-3.310782-2.026561-.871369.210511-1.394399 1.888315-2.766831 2.234978-2.138147.541464-4.759575-.468152-7.019066.05865-1.793994.418927-3.125629.595924-4.69472.682851-1.26678.071218-.745841-.914309-3.078557.249262l-.989573-2.493665c-1.167404 1.05046-2.335853 2.099873-3.503257 3.150334-.221765-.941539-.361937-1.894599-.421562-2.860227-1.741691 1.744833-3.93528 2.042271-6.276364 2.199369-2.535651.169666-4.424836.72265-6.891447 1.186612-.780361.145577-2.788798.379129-3.430033.106826.094145.039799-1.199832-.498523-.809651-.395886-.168416-.342473-.324279-.690183-.468635-1.044177-.217581-.984479-.925764-1.027419-2.121411-.129867-.619268-.095306-1.819099-.906978-2.436275-.70694-1.591058.515281-1.374524 1.750069-2.960352 1.568883-1.028277-.118347-1.5534-1.638006-2.624566-1.741691-1.639177-.157098-3.059727 1.677805-4.536765 2.07788 4.490739-1.219079-5.824465-.27335-2.617243-.189564-2.102582-.054461-4.28571-.159193-6.229291.783394-1.073258-.73417.230133-2.209842-.854632-2.817287-.984343-.55089-1.059659.903836-1.174726.936303.620314-.17595.31068 1.061981-.31068 1.281918-1.935212.685993-3.483381-1.057792-3.583803-2.787962-1.644408 2.474813-2.10572 1.479861-4.524212 1.632769-2.385019.150814-4.441574 1.401313-6.827638 1.378272-4.718779-.045035-7.920771-1.685136-9.496138-5.898499 5.028413.612682 10.089254-2.620391 15.005739-1.85899 1.616164.250309 2.625612 1.464151 4.040932 1.248403 1.744829-.264971 2.962444-2.167949 5.198922-2.373224 4.933221-.451394 9.796357-.01152 14.763053-.767684 5.933256-.903836 12.124888-1.439016 18.114631-.999142 4.628819.340379 8.376854-1.42959 13.070528-1.769968 6.069243-.441969 12.188698-.520518 18.268402-.838903 6.246028-.32781 12.968013-1.324858 19.197304-1.005426 1.944627.099496 3.618324.290108 5.548306.173855.815927-.049224 1.588966-.603255 2.445689-.520517 1.115101.107874 1.594197 1.249451 2.75114 1.209653 1.966594-.067028 4.06813-1.68723 6.405029-1.731218 3.843227-.072265 7.669716-.063886 11.522358-.282776 3.392374-.192706 7.026389-.984479 10.403072-.941539 2.38188.029325 2.969766 2.059028 4.357889 2.268492 2.4959.375987 15.121852-6.808618 16.212893-.360278 6.573445-4.498233 15.388598-.689135 22.704746-1.534321 9.3999-1.08607 18.971355-.118347 28.434019-.504808 9.628988-.393792 19.535182-.029325 29.126511.8787 3.972939.375988 7.810935.728934 11.79538.500619 1.775165-.10159 3.828582-.555079 5.604793-.145578.42993.099496 3.723975 2.39836 3.314966 2.464341 1.799224-1.614965.581609-1.851659 3.746989-1.934397 2.439413-.063887 4.747023.462914 7.172837.606397 4.354751.25764 8.741929-.345615 13.087265-.212606 3.627738.111016 7.174929.646196 10.821497.672379 3.931095.028278 8.573512.139293 11.417751 3.308479-.300219-.994952-.599393-1.989905-.900658-2.984858 4.388224.343521 8.724145 1.909262 13.160488 1.177186-1.122423 1.074549-2.261583 1.95325-2.690468 3.529464 2.392341-.303722 4.011643-1.973148 6.530557-1.986763 2.115134-.012568 2.555526 1.048366 4.788865-.322574.275114 1.679899.549182 3.359798.824296 5.03865 3.093201-.727887 1.063844-3.034083 1.289793-5.11301 2.513683.755117 4.642417-.112063 3.651797 3.504328-.76467 2.787962-4.244914 4.162044-6.863203 3.312669zm-4.346382 31.056139c-1.078489 3.029892-10.407257 1.298675-12.613399.978195-2.850515-.412643-6.111086-1.067217-8.735652-1.391886-.314864-.419975-.692492-.776063-1.131838-1.069312-.330555.459772-.747933.786536-1.25318.978195-1.205062.263924-1.209246 1.508139-2.792982 1.232694-.073224 1.841186 1.205062.794915 2.185221 1.463104-2.468703 1.654764-1.340004-.250309-2.724988-.219937-.343108-.487003-.821158-.677615-1.434149-.572883-.780362.202133-1.500051.536227-2.158023 1.002284-.617176.651432-1.145437.684946-1.585828.10159-.421563-.424164-.936225-.685994-1.543986-.785489-2.432091.395886-3.11203 1.474625-5.850617 1.298675-3.913312-.252404-8.14672.779205-11.998315.235647-2.38711-.33619-6.375739-4.086638-7.459458-.430448-1.650684-2.710461-4.279434-4.554789-5.858986-7.323899 7.360083-.425212 14.718073-.932114 22.085478-1.198133 6.45001-.232505 13.505689.493287 19.53309.189565 5.646635-.284871 11.625917-.909073 17.390757-1.424353 6.111086-.545653 8.133122.794914 5.946855 6.936391zm-192.025346.447205c2.672685.739407 5.217751-.93735 7.809889-.407407.856724.174902 2.630842 1.735407 3.021023 1.765779.713413.057603 2.811811-1.474625 3.711423-1.679899 5.693708-1.295533 12.590385-1.157287 18.282001-.361325 3.016839.421022 3.479198-.959344 6.112132-1.629628 2.736495-.697514 6.625748-.16024 9.507645-.352946 6.778473-.453489 13.554853-.130915 20.2873-.626297 6.912368-.508997 13.790217-.784441 20.705723-1.14053 4.710411-.24193 16.030879-2.92935 19.934777.567647 3.219775 2.883268-.927856 7.889451-4.148676 9.032076-2.408032.852517-3.561837-.944682-5.349554-.772921-2.035634.194801-1.326405 2.600492-3.143412.369703-1.125561 2.218221-8.203208 1.272492-10.231519 1.419117-4.419606.319432-8.159273 1.206511-11.167743-2.916783.203982 1.188707.407964 2.378461.611945 3.567168-3.989675-2.132341-8.271201-1.449489-11.734708-.705893-1.714493.367609-6.97827 2.910498-8.836073 1.813956-1.278287-.75407.974928-2.044366-1.182049-2.688467-1.130791-.337237-3.081694 1.539558-4.462494 1.4453-3.822306-.262877-2.737541-2.832997-6.491853.437779-1.272009-1.099685-1.694618-2.969149-1.527248-4.572593-2.72708 2.326094-2.499039 6.203268-7.374727 5.493186-1.817008-.263924-2.150701-2.117678-3.098432-2.459104-2.017851-.728934-2.246938.581262-3.994905 1.618107-.660065.39065-1.464485 1.020088-2.241708 1.098637-1.596289.159193-1.849435-.57393-2.068062-.549842-1.061752.1173-2.399663.656669-3.660166.271255-1.130792-.346662-1.461347-2.341804-3.454092-1.875747-1.906969.447205-1.92266 1.742738-1.576414 3.681325-1.880817-.194802-3.017884-1.24212-4.424836-2.376366-1.42055 3.312669-4.410191.568694-6.064013 3.363987-2.154885-2.572214-3.536731-1.864227-6.209416-4.376744.131804 1.048366.262561 2.096732.393319 3.145098-2.085845-.402171-3.013701-1.872606-4.79305.073312-1.727046-3.217363-6.963625 1.366751-9.653047-1.740644-1.198786 3.935824-9.131063 2.994284-12.481595 3.06236-2.96872.060744-5.166494-.182234-8.06722.506902-2.563894.60954-6.116316 1.241073-8.527486.962486-1.575367-.182234-3.297183-.471293-5.259593-.25764-2.829593.306864-5.273191 1.771015-8.204253 1.078738-4.41333-1.04313-7.118442-6.840038-2.203003-9.38607 3.36413-1.742738 9.42396-1.09759 13.125968-1.419116 6.135145-.533086 13.010902-1.650575 19.154416-1.142625 4.792003.396934 9.159306-.746738 14.048594-1.229552 3.681087-.36342 9.713718-1.017994 12.114428 2.629817.921579-1.065123.826387-3.284391 2.810764-2.735596zm-67.162321 49.936151c-.659018-3.281249 27.390051-5.087874 30.173618-5.302574 5.845387-.450347 11.706465-.771874 17.56545-.920593 4.816063-.122536 9.310986.797009 14.128095.057602 4.499106-.690182 9.929207-2.10511 13.844612 1.079786.576379-4.355798 17.459797-2.233931 20.672249-2.221363 13.982693.050271 27.362854.082738 40.888417-.783394 7.729342-.494335 15.93778-1.160429 23.668168-.773969 3.487566.174903 6.295192 1.103874 9.762883.297439 2.261583-.525754 4.698905-1.620202 6.862158-.073312 2.531467 1.811861 3.613093 7.961716 1.86931 10.528694-1.269917 1.870511-2.394433 1.663142-4.42379 1.33952-3.119353-.496429-5.437423-1.218031-8.618493.050271.515707-.206321-2.130826.384366-1.911153.367609-3.603679.269161-8.545269 2.785868-11.649977-.115205 1.243766.217842 3.051359-2.002473 1.483314-2.185754-1.177864-.136151-1.924752 1.125868-2.844239 1.548984-3.143412 1.446347-4.752253.993906-6.629932-2.040176-3.785693 3.27706-4.193657 2.370082-5.855847-1.665237-1.279332.985527-1.554446 3.316858-2.561803 4.081401-.149586.114158.469681 1.530132-.257331 1.471483-.674709-.054461-.895428-1.16043-1.414274-1.247357-.331601-.056555-.504201-1.026372-.821157-1.085022-.344154-.063886-.697723.555079-1.086857.537274-1.04083-.049224-4.015827 2.164808-2.948845-.942586-1.576413 2.005615-2.254261.726839-2.823318-1.09759-1.820145 1.383508-3.639244 2.767016-5.460436 4.149476-.846263-2.352278-2.302379-1.711319-4.135078-.890221.55232-1.633817.206074-3.179659-1.17891-2.043318-.802328.657716-1.34105 2.746069-2.162207 3.633148-3.322289-3.365035-4.530489-2.442347-9.121649-2.004568-1.752151.166524-3.930049.490145-5.494956-.568694-1.376616-.930019-2.154885-4.344277-4.508521-1.58564.524076-.613729-.297081 4.098157-.442484 4.84699-1.037692-.699609-1.919521-1.560504-2.645487-2.580593-1.354649 2.681136-4.910209.275445-7.823487.823193-4.586976.86299-9.318308 2.315621-13.369701-1.09759-.286621 1.101779-3.605771 2.505186-3.609955 2.548126.196659-1.951155 1.427873-1.265161-1.086857-1.635912-.462359-.068075-.987481.764543-1.424735.85566-1.499004.310006-3.25011.015709-4.760621-.027231-6.284733-.181186-12.038066 1.211748-18.244343 1.716555-2.092122.169666-4.573377.503761-6.537879-.28487-2.023081-.813767-1.96764-1.736454-4.014781-1.212795.647512-.165476-1.279332 1.85899-1.174726 1.782536-.275114.200038-1.423688-.787583-1.831652-.713224-.119251.431495-.237456.862991-.356707 1.294486-.49374-.060745-.987481-.121489-1.480175-.182233-1.349419.181186-2.567033-1.184518-3.834859-1.2306.233272.008379-3.421664 1.368846-3.25534 1.451584-2.551342-1.272492-1.8191-.903836-5.055611-.12882-3.059727.732075-6.105856.561362-9.245084 1.017993-9.131063 1.325906-3.690502-3.249829-4.815017-8.839369zm-8.064081 45.650524c-1.716585-2.435016 2.851561-3.27706 4.310816-3.49176 2.399663-.353994 5.582825.349804 7.182252-.03142 2.435229-.579167 4.785727-1.961628 7.527452-2.336568 3.459322-.473388 6.946888-.549842 10.420856-.846233 1.156943-.099496 2.590046-.497477 3.715607-.430448 1.676835.100542 2.373512.987621 3.727114.993905 2.305518.011521 5.150802-1.444252 7.513853-1.711318 3.026254-.343521 6.082843-.503761 9.123741-.654575 6.407121-.318384 12.748341-.186422 19.152324-.193754 2.920601-.004189 10.699107-3.035129 12.155224.36342 2.025173-2.575356 7.218864-2.224505 10.11436-2.298864 5.099545-.130915 10.146788-.623155 15.242149-.859849 4.363119-.20318 9.238807.731028 13.523471.076454 2.360959-.360277 3.143413-1.116441 5.821328-.775015 1.989607.252403 5.022137-.799105 6.730354-.334095-.088916-.024088 2.130825 1.351041 1.438333 1.395028.762578-.049224.717598.483862 1.55863.24612 1.10464-.311053.597301-1.699798 2.886081-2.193085 3.570205-.769779 8.330827.121489 12.040158-.076454 3.598449-.19166 7.190621-.274398 10.793253-.257641 1.658006.007332 3.708285-.388555 5.321311-.064933.790821.158145 2.470795 1.189754 3.140274 1.086069 1.8986-.296391 2.86516-1.614965 5.431146-1.533274 2.909095.092164 5.527385.052366 8.419742-.169666 2.800304-.213653 3.25011-.613729 4.638233 1.716555 1.37557 2.311432 1.75529 5.321426-.777223 6.892404 1.645453-.107874 3.668534 2.094637 1.730184 3.313716-1.197739.754069-3.599495-.946776-5.033644-.82424-1.766796.151862-3.153872 1.08607-5.076532 1.143672-2.022035.061792-4.074406.570789-6.068197.60954-2.076431.040845-3.646568-.887079-5.6163-.49224-1.733322.348757-1.916383 1.768921-4.003274.521565-1.036646-.62106-1.212384-2.918877-2.626658-2.939824-1.896508-.029325-1.140206 2.420354-2.230201 3.5546-.292897-3.502234-2.996964 2.293627-4.072314-1.958486-.990619 1.411785-4.6602 3.387028-6.437457 2.252782-1.620348-1.033703-1.082673-3.373413-1.757382-5.058549-1.123469 3.028846-4.138216 6.171849-3.865194.656669-1.464485 1.802435-5.421732 1.517565-4.430066 4.672088-1.192509-.023041-1.474946-1.725981-2.479164-1.854801-.866138-.111016-1.554446.555079-1.687296.544606.474912.039798-1.419504.670284-1.448794.676568 1.282471-.260783-3.699916-.704846-2.851561-.697515-1.155897-.009425-2.571217.937351-3.922727.934209-1.231214-.003142-2.45615-.488051-3.671673-.626297-3.151781-.360278-2.495901.332-4.474001 1.321716-.733289.366562-.917395.987622-1.958226.91012-.767808-.057602-1.055475-1.059886-1.142298-1.068265-1.079534-.108921-.282436-.471293-1.959271-.303722-.192475.330952-.383905.660858-.57638.99181-.605669.775016-1.39126.96877-2.355728.58231-2.481256.532037-10.711661 2.83928-9.905148-1.432732-1.261549.615823-2.522052 1.232694-3.783601 1.849564-.540814-3.444631-7.392511 1.122726-8.922897 1.353136-1.963456.294297-2.144424-.458726-4.001182-.859849-.334739-.072265-1.005264 1.031609-1.78981.873464-2.03668-.409501-2.399663-.612681-2.749047-2.824618-1.451932 2.71465-2.659086 1.500807-5.293067 1.946965-.582655.099495-.955053 1.246309-1.791901 1.048366-.602531-.142435-.619268-1.244214-1.034554-1.38665-.37449-.12882-.318003-.998094-.869277-1.121678-.63182-.142435-2.786705 1.624391-3.404927 1.896694-1.394399.614776-3.684226 1.631722-5.04515 1.326953-1.683112-.375988-.934132-1.623344-3.311828-1.483003-3.751174.219936-5.31608 3.412164-7.649841-1.618108-1.053383 2.015041-.919488 2.561742-2.610968 3.226789-1.250042.491192-4.416468-.021994-6.061921-.082738-7.029527-.259735-13.94085 2.135482-20.911798 1.508139-3.063911-.275445-5.647681-.888127-8.739836-.387508-3.249064.527848-6.426996 1.302864-9.723133 1.614965-1.675789.158145-5.178.639912-6.000204-1.502902-.723874-1.886221 1.976009-3.172328.463405-5.318284zm13.786033 77.338195c-9.117465 6.099584-16.668976 14.428909-25.040599 21.481552-8.39359 7.071496-15.053858 14.931622-22.602232 22.762423-6.979316 7.238019-13.390621 14.086435-21.828146 19.555533-5.339094 3.462436-10.101808 7.722928-15.586303 10.98742-4.10788 2.444441-10.330895 5.65971-8.326643-1.817098 2.054463-7.66323 5.846433-15.408151 9.139432-22.564479 4.681121-10.172606 9.398854-20.250953 14.46388-30.230852 1.90383-3.749401 2.96872-7.482044 5.987651-10.468997 3.28463-3.250877 5.584917-7.494612 9.18232-10.566397 15.131266-12.918676 37.935388-2.937729 54.61064.860895zm28.601389 4.379887c-4.136124 2.167949-8.764942 2.705224-13.147936 4.139003-3.735482 1.221173-7.208404 3.393312-11.225276 3.554599 3.657028-2.746069 6.798348-6.476618 10.920872-8.560782 4.637187-2.344946 8.846535-.637817 13.45234.86718zm181.531265 18.067293c-15.212859-5.132908-29.37652-12.696643-44.193968-18.783659-2.557618-1.051508-22.561435-7.639142-22.155564-10.774814 14.018258-2.568025 28.454941-6.975142 42.506673-2.170044 12.78286 4.371508 23.180703 14.856214 33.076436 23.631697 2.581678 2.289439 18.549793 12.716543 17.120874 16.03759-.989573 2.302006-8.683349 1.673615-10.500356 1.202322-2.34736-.610587-3.69887-2.03494-5.539937-3.600682-3.07751-2.615154-6.482438-4.250019-10.314158-5.54241zm-28.083589-85.758637c2.310748-2.126057 3.69364-5.351798 5.900828-7.314473 2.83587-2.521943 7.412386-1.293439 10.511863.016757 9.302617 3.930587 17.253724 10.539167 26.498807 14.640467 10.245118 4.545363 19.114666 10.619811 28.355565 16.879634 8.44694 5.721501 17.580095 10.458524 26.201726 15.919243 8.785863 5.565451 18.620925 9.182889 27.527085 14.550397 9.064115 5.463861 18.092664 10.949716 26.803211 16.969704 15.531908 10.736063 31.704005 21.760138 43.194981 37.02376 5.906058 7.845464 11.434488 16.74453 15.768317 25.554574 3.939464 8.008846 8.212622 19.126133 3.107846 27.457552-4.902886 8.000467-13.259864 14.30323-20.333326 20.272947-2.678961 2.260113-5.227165 5.006182-8.69904 5.986473-4.222946 1.190801-9.150938.861943-13.494182 1.213842-23.222545 1.883079-44.857171.105779-67.742884-4.047886-22.066649-4.0039-44.225351-6.246209-66.461461-9.029982-12.544359-1.56993-25.086626-3.398548-37.460476-6.013703-5.289929-1.117489-10.671911-2.406738-15.847819-3.929539-4.520027-1.330095-8.321412-4.258398-12.969059-5.418827-19.724519-4.925539-42.293276-6.808618-61.821136-15.093956 17.280921-7.181464 35.645561-11.519457 53.356414-17.487079 18.6408-6.280769 36.846438-11.550877 56.494595-13.335508 10.110175-.918498 19.1586-3.500138 28.883825-6.20222 9.268097-2.575357 18.944158-3.365035 28.464355-4.51918 4.233408-.513186 16.315408.255546 17.718175-5.278486 2.088983-8.239255-9.781713-9.190221-14.842554-8.451861-7.179114 1.046271-13.098771 2.838233-18.592681-3.050839-5.610023-6.014751-11.061045-12.171937-16.772536-18.110234-10.590318-11.01046-21.50596-23.744807-36.476133-28.685009-18.263172-6.026271-39.441716-.305817-57.664091 3.121009-19.247515 3.619533-38.463649 7.085111-57.350273 12.346839-7.821395 2.178423-17.907512 6.978284-26.024942 6.207458-8.000271-.761401-17.061248-2.070549-24.791636-4.377792-3.498027-1.043129-6.373647-2.977527-9.503461-4.781009-4.070222-2.345994-8.529578-3.848896-12.848762-5.672278-8.734606-3.686562-17.24954-7.081969-26.672454-8.531457-7.935415-1.220127-16.36248-1.943824-24.053117.837854-7.544189 2.729313-14.229563 8.286385-19.49334 14.222587-5.717767 6.449388-10.443869 13.676934-15.13022 20.882486-2.250076 3.458246-4.995986 6.476618-7.326609 9.857363-1.956133 2.839281-3.098431 5.993804-5.168585 8.753489-4.633002 6.173943-7.778507 14.071773-10.586133 21.254284-3.119353 7.977425-6.584952 17.465085-5.840157 26.143167.281391 3.280202.575334 7.624479 1.844205 10.665893 1.614072 3.868795 3.915405 3.770347 7.232463 5.229261 5.698938 2.506234 7.297319 9.435294 14.661586 8.084253 6.908184-1.266208 12.898973-6.958385 17.938893-11.496417 6.569261-5.912113 12.856085-12.146801 19.141863-18.358448 6.45001-6.375028 12.80692-13.445476 17.937847-20.945325 2.019943-2.952391 3.594264-6.287053 5.981375-8.97552 3.039852-3.424732 6.453148-3.836328 10.581949-5.199937 36.098505-11.926864 72.371703-23.431659 109.596816-31.306448 8.918712-1.887268 17.909603-4.321236 26.670361-6.832707 9.292156-2.663331 14.104035.151862 21.772705 5.220884 16.021465 10.593628 34.9583 18.054725 52.798863 24.965981 5.617346 2.176328 14.560118 2.314574 18.95148 6.606486-26.029126 3.967243-50.834361 11.602195-75.939815 19.204681-12.378036 3.747306-24.898335 6.997136-37.323443 10.58106-12.429292 3.586019-24.385765 8.231924-36.644549 12.274574-12.200205 4.022751-25.093948 5.663899-37.412358 9.374549-12.574694 3.788151-25.097086 6.39388-38.004427 8.695886-13.03287 2.326095-25.975777 5.009325-39.053627 7.091395-5.987651.95306-11.974256 1.941728-17.896005 3.252971-5.79413 1.284013-11.3916 4.356846-17.215019 5.069022-26.005067 3.181754-51.499656 10.271054-77.403255 14.278095-19.34166 2.992189-52.990292 7.165754-65.532559-12.238965-12.612352-19.514688 2.860976-42.278158 16.666884-56.231584 8.579789-8.671798 18.22133-16.303609 28.336736-23.093375 10.825681-7.266297 21.241306-15.112808 32.06908-22.368631 24.503969-16.419861 51.074955-29.811924 77.401162-43.006044 12.636412-6.333136 24.844986-13.124997 37.137244-20.075003 6.100625-3.449868 9.477309 2.11663 14.299648 5.899545 3.793016 2.97648 10.758734 10.311899 16.065399 6.920682.203982 1.221173.40901 2.442347.612992 3.664568 1.554446-.709035 3.109938-1.417023 4.664384-2.126057 1.043968 2.738738.921579 4.439583 3.839042 5.877552 1.790856.883937 5.613161 1.946965 7.321378.39065.348339 1.08188.696677 2.162713 1.045015 3.243545 1.492728-.114157 1.781441-4.385123 2.062831-5.385312 2.558665 3.736833 6.097488 6.859937 10.594502 7.915634.021968-.244025-.731196-3.313716-.698768-3.332568 1.422642-.871369 3.217682 2.85918 3.971892 3.658284 2.501131 2.646574 3.992813 2.236025 6.755459.099495.200844.217843 1.136022 2.658095 1.27201 2.614108.598347-.189565 1.733322-2.352278 1.857804-2.549174-.1726 2.844518 5.318172 3.417401 7.257568 2.806814-.435161-.833665-.870322-1.666284-1.304437-2.499949 6.754413-.901742 9.406177 6.274485 15.88966 5.910019 4.79305-.270209.948777-1.317527 3.661212-3.370272 2.369328-1.794057 2.791936 2.129199 3.024162 2.004568.451898-.473388.802328-1.016946 1.05129-1.631722.876599 3.359798 7.859054 6.373981 7.137272.849375 2.746955 1.098637 4.696812 2.922019 7.736664 3.307432 3.694686.468152 7.641473-.31629 11.326744-.622107 7.942739-.660858 15.429394-2.28106 22.588633-5.919445 4.244914-2.157476 8.76285-4.114915 12.752525-6.717501 3.339025-2.178423 9.673968-8.791193 14.119726-5.943534-1.138114-3.35875 4.221901-.246119 4.392409-4.572593.860907.649338 1.721815 1.297628 2.582723 1.946966.516754-1.132152.372398-2.915735 1.063844-3.902309.949823-1.355231 1.413228-.557174 2.222879-1.319622.905888-.852517 1.69671-3.136719 2.782521-3.787104 1.119285-.669237 2.436275.12882 3.640291-.455584 1.833744-.891268 9.721041-9.588201 8.386268-2.13653 3.391328-1.15205.776177-2.205653 1.199831-4.465766.850447-4.528606 2.921647-1.26935 4.984479-.874511 3.37773.647243 3.309736-2.144909 5.193691-4.174612 1.719723-1.853754 4.953097-2.68323 3.839042-5.902688 1.27201.685994 1.54294 2.028656 1.690434 3.332568zm-203.616743-96.728252c-2.661178 2.963911-4.653923 1.696656-7.612183 1.262019-.316956-1.060934-.85777-1.207559-1.62244-.440922-.876599.503761-1.819099.835761-2.828548.993906-2.425814.598019-4.945774.34352-7.319286 1.249451.067994-.794915.90275-2.207748.368214-3.01523-2.495901 1.725981-4.043025 2.824618-7.107982 2.857085-2.483348.026183-6.842283-1.870511-8.904068.396934-.06381-.88289-.12762-1.764732-.190383-2.647622-1.009449.502713-1.88814 1.176139-2.636073 2.020278-.141218-1.308101-.219673-2.29677-1.084765-3.354562-1.640223 3.374461-3.437355 3.454057-6.624702 2.164808.446668.180139-3.190484-1.951155-3.051358-1.360467-1.149621-4.844896 17.001623-4.44482 18.907545-4.63648 4.75853-.480719 9.517059-.759306 14.282912-1.198132 4.520027-.415786 7.893573-1.120631 11.02234 2.650763-1.394399-5.447104 11.794334-5.176896 4.400777 3.058171zm-208.113757-84.475672c.500017 8.235066 2.332715 16.988555-.869277 24.914662-2.574355 6.370839-7.709466 13.565918-13.241035 17.723773-11.3267442 8.512606-20.9274884-1.904025-22.5039018-13.352265-1.6433612-11.940479 1.6140716-26.530675 11.8958012-33.893325 6.1435136-4.398738 12.0924606-4.093968 19.1659226-2.647621 1.661144.340378 4.357888.209463 5.307711 1.860038.222811.38646.023014 5.387406.244779 5.394738zm150.436067 109.720239c-1.956133.987622-4.003273 1.565742-5.728227 2.909452-.599393.467104-.803375 1.530132-1.43938 1.922877-1.156943.715318-2.810765.240883-4.016873.831571-1.995883.975053-3.426894 2.371129-5.79936 3.269728-3.523132 1.335331-6.612149 3.166044-9.94176 4.902499-5.548305 2.892694-11.502482 5.375886-17.302888 7.731306-2.927924 1.188706-11.025479 3.505375-10.745135 7.79205-.654834.176997-1.324312-1.255735-2.691514-1.141577-1.877678.15605-4.357888 2.327142-6.306699 2.861274-3.645521.998095-6.467793 1.08607-6.467793 5.73407-1.160081-.788631-1.45507-2.717792-2.999055-2.973338-1.737507-.288012-2.468703 1.586688-3.858918 2.170044-1.637085.687041-3.672719.028278-5.294113.759306-.709229.74988-1.496912 1.404455-2.364097 1.962675-.881829.10159-1.759474.075407-2.632934-.08169-3.44154.729981-6.609011 2.024466-10.058919 2.696845-3.362039.656669-5.664418.895457-4.25119 4.871079-3.596357.703798-4.475048-3.112631-8.532717-1.716555-4.974018 1.709224-9.622711 2.942965-14.815356 3.986094-2.647579.532038-5.41441 1.719697-8.081864 1.998284-1.902785.198991-3.678995-.481766-5.55249-.270208-2.258445.253451-4.07336 1.299722-6.410259 1.338473-2.216603.038751-4.544088-.35923-6.72094-.74988.307542.876606.692492 1.717603 1.154851 2.522991-1.505281-.315243-2.199865-2.12501-3.476059-2.393123-1.338958-.280682-2.538789 1.100731-3.65389.794914-.474911-.130914-.159001-1.595066-1.008402-1.8747-.774085-.253451-1.100456.046082-1.868265-.07436-.256284-.039798-3.467691-.213653-3.979214.056556-.894382.474435.01046 1.362561-.16737 1.494523-3.019977 2.234978-3.056589 1.028467-4.402869-1.306006-1.9770545-3.426827-4.3610266-1.264114-7.9542448-1.864227-4.00432-.668189-7.1592388 1.098637-11.1007951.847281-4.2511903-.271256-9.2471758-3.451963-13.0056716-5.309906-8.1163842-4.01123-16.0308787-7.80776-22.8470097-13.883255-13.32472-11.876593-24.165046-26.482499-30.5564763-43.203988-6.8673879-17.963609-8.16868729-36.699091-7.61741335-55.757148.33160121-11.461855 1.24899636-22.916379 3.05554305-34.244177 1.243766-7.79205 1.5042351-21.638649 10.2890521-25.186965 1.5105115 18.24429-3.2553406 36.835243-.2500085 54.961186.9048424 5.459672 3.1120303 12.734347 7.2889503 16.778044 6.1843103 5.985426 7.6310121-2.666473 8.1906546-7.446435 1.0408303-8.876025 2.9749963-17.703874 4.3442897-26.538006 1.3682472-8.830991 2.3348072-17.760429 4.2375915-26.498208.6935382-3.185944 6.2878703-26.51706 10.3936582-25.412139-.8305722 16.972845-3.036714 33.653489-3.123537 50.689173-.03452 6.832707-.6464655 14.049779.3399697 20.837451.5073394 3.492808 3.6884097 13.742915 9.1593066 12.888303 5.0629334-.790725-.5031551-8.01094-.9759745-10.794713-1.2521345-7.369981.3441539-16.539255 1.5115576-23.854776 2.20928-13.843457 7.1383176-28.022057 15.1950763-39.590738 7.2157261-10.359028 18.3259358-20.22058 31.7102812-18.394057 5.718813.7813 10.180262 2.201464 13.05379 7.423395 2.254261 4.098157 11.135316 8.754536 5.988697 13.88535-4.685305 4.671041-12.262968.932113-17.471304-.181186-6.376785-1.363609-13.2106993.276492-18.5435163 4.013325-9.1498921 6.409589-14.3645042 17.86935-16.0664448 28.616933-2.2940109 14.491748 3.8379963 52.423533 26.4234911 43.922448 15.003647-5.648189 26.30424-25.964075 25.044783-41.517804-.505247-6.226309-2.93943-18.046347 5.674879-19.727294 11.035939-2.153287 12.594569 10.012366 11.477377 17.917527-1.624533 11.499559-7.702145 22.192682-14.65531 31.284455-6.059829 7.924012-13.108185 12.878877-20.400273 19.423571-2.15907 1.937539-7.665533 6.293337-6.740815 9.89716 1.013633 3.949439 9.667692 5.072164 13.133291 5.721502 17.142841 3.208984 36.475087.256593 53.588639-1.983621 35.173788-4.606108 69.885217-15.950663 98.7272-36.808013 1.165311 12.90506 2.63398 25.76718 3.174794 38.719369.262561 6.287054.329509 12.665224 1.048152 18.917716.442484 3.846801 2.041911 9.219546-2.328531 11.427293zm-97.530506 44.967672c-1.3808.721603.111928-3.646763-.271976-2.201463 2.062832.739407 2.153839 1.473577.271976 2.201463zm145.910809-156.177198c2.192544-2.416164 8.18124-8.163849 10.081933-2.709414.707137-2.325047.79919-5.768631 3.529408-2.628769 1.086857-3.857275 13.07785-3.49595 16.047616-3.666663 9.509737-.543558 19.058178-.834713 28.534441-1.779394 19.472418-1.940682 39.284806-.939445 58.828356-1.003331 4.232362-.013615 8.453216-.242978 12.654196.37075 4.05453.592783 8.315135 2.254877 12.447075 1.647433 3.673765-.540417 6.082842-1.553174 9.864351-1.119584 4.525258.518423 8.917667.887079 13.482675.870322 20.192108-.073313 40.373756.744643 60.570048.776063 3.936326.006284 8.651967-.762448 12.344561.909072 1.368247.620013 2.863068 2.682183 3.908082 2.908404 1.19774.258688.486418-1.609728 2.088983-.76559 2.147563 1.12901.485372 4.601918-.933086 5.152808.849401-.329905-1.533525-.654574-1.295023-.667142-1.130791.060744-2.095259.927924-3.309736.873464-1.849435-.080644-3.397604-1.208606-4.888241-2.201464-.025105.405312.79396 3.108442-.141218 3.244593-.804421.118347-1.55863-2.547079-1.639177-3.167091-4.517936 3.985047-9.304709 1.763684-14.911594 2.268492-3.976076.358183-12.268199 3.011041-15.042351-1.14053-.115067.882889-.469682 1.65581-1.061752 2.318763-.792914 1.207558-1.478083 1.104921-2.057601-.311054-.195613.009426-2.127687.429401-2.165346.426259-1.359878-.107874-3.12249-.595924-4.505383-.714271-2.14024-.182234-1.745875 1.375129-3.450953 1.400265-.930994.013615-3.305552-1.331142-4.929038-1.414928-2.811811-.146624-5.684293 1.046272-8.458446.684947-1.910107-.248215-3.636107-1.802436-5.509601-1.86318-2.334808-.077502-3.092155 1.70294-4.941591-.798057-.37972-.102637-.614037 1.368846-.76467 1.393981.036612-.006284-1.76052.259735-1.97287.342473-.36926.141388-1.805501.799104-2.242754.806436-.944593.017804-1.457163-.658764-2.458243-.674473-1.655914-.028278-6.942704 1.429589-6.795209-1.633817-5.909197 2.189943-10.952255 1.336378-17.01836 1.853753-2.783568.238789-4.531535-.134056-7.179114-.645148-3.316012-.639911-5.51797.164429-8.825614.326764-3.177932.15605-4.180058-1.188707-6.862157-2.402549-1.058613-.478625-1.757382-1.110158-3.055543-.844139-.739565.151861-.213397 1.39817-.432023 1.483003-1.140206.439874-1.936258-.026183-3.499073.080644-2.886081.196895-4.034656 2.60887-7.001284.344567.98539-.119394 1.971825-.240883 2.95826-.360277-2.836917-1.202322-6.580767-1.816051-5.893506 2.562788-2.419538-.339331-.325324-1.986763-1.514695-2.576403-1.189371-.588593-2.521006.396933-4.018965.883937-3.955155 1.282965-7.253384.646195-11.378001.415785-4.686352-.26183-15.650113 3.561931-19.005876-1.40236-.100421 1.046272-1.223891 3.960959-2.718711 3.823761-.487464-.045035.871368-3.138814 1.025139-3.466625-.7699 1.639054-4.282572 1.950107-6.013802 2.80053.194567-.880795.388088-1.76159.58161-2.641337-1.60675 1.711318-2.388157.667141-4.279434 1.238977-.826388.25031-2.023082 1.955344-2.730219 2.057982-.823249-.955155-1.858849-1.365704-3.105754-1.232695-.829526-.207369-1.659052-.248214-2.487532-.121488-3.31915.240883-6.345403 2.085211-9.646771.829476-2.857837-1.089211-3.963523-3.888694-5.667556.565552-.44876-.791773-.896474-1.583546-1.345234-2.375319-.55232.859849-1.105686 1.71865-1.659052 2.577451-2.162207-1.415974-2.295057-2.236025-4.783635-1.715507-.583702.232504-1.183095.200037-1.796086-.098448-.146449.436731-.292897.872416-.439346 1.308101-.058579 1.096542-.383904 1.458914-.975974 1.086069-.497925-.179092-.947731-.450347-1.348372-.814814-1.6465.125678-3.749082.559268-5.515878.319432-.682031-.091116-4.957281-2.348088-5.275284-1.997236zm50.378279-29.483067c.193521.297439.388089.594877.58161.892316-2.672685 1.411785-3.301367.601161-3.577527-2.232883 1.305483.025135 1.528294 2.321905 2.995917 1.340567zm1.655914-1.663142c1.286655.567647 2.762646 1.683041 3.975031.188518.815927 2.372176-5.244948 5.609438-3.975031-.188518zm8.311998 1.047319c2.701974 1.826524-3.779417.358183-3.768982.361325 1.165337-1.075596 2.42061-1.196038 3.768982-.361325zm23.240328-10.183079c.92681 4.67523 3.482336 4.542221 7.607999 2.369035 6.015895-3.170234 7.031619-8.361792 7.45109-14.560871.402733-5.943533 1.129745-8.244492 7.258614-7.003419 4.278388.866132 7.896712.138246 12.20962.018851 4.602666-.126725 6.22406.576026 6.594366 5.312.371351 4.742259 1.214476 8.34294 4.656016 11.952 3.499072 3.668757 8.164503 5.859748 12.710682 7.912493 2.337945 1.054649 4.533627 2.189943 7.120534 2.418258 1.002127.089022 6.218831-.570788 6.328981 1.079786.080233 1.241072-7.143862 4.741211-7.910624 5.158044-3.350532 1.822334-6.69165 3.457199-10.351816 4.561072-8.419742 2.540795-17.347869 2.690562-26.068876 2.536606-14.062193-.247167-33.495907-6.19489-41.904142-18.670549 4.765852-1.027419 9.531704-2.055886 14.297556-3.083306zm-1.261549-40.490385c-2.224971-1.867369-3.665396-4.687798-5.513785-6.898687-.93204-1.115395-1.615118-1.470436-2.502177-2.028657-.934132-.587545-1.460301.244026-2.239616-1.137388-2.013667-3.570309 4.199933-8.594296-2.390248-9.968378-2.229156-.466057-7.595447 1.30077-8.246096-1.893552-.920534-4.517085 7.701098-4.812429 9.729409-7.10501 4.03361-4.55793 1.29607-12.285047 3.75222-17.543634 2.325393-4.981047 8.328734-5.866031 13.066343-7.36265 6.601688-2.084164 13.282877-3.292769 19.986034-4.961148 4.687397-1.165665 12.474273-5.850322 16.820654-1.711318-6.70734 1.489287-2.808672 3.826902 1.662191 5.146523 5.063979 1.495571 10.431316 2.078928 15.678356 2.495761 5.401857.428353 10.906228.510044 16.243229-.5666 4.935314-.996 10.448053-5.285817 15.622915-4.18718-2.871436 4.992568-11.425074 7.719786-16.622949 9.027887-2.648625.666094-4.34429.457678-3.988629 3.759874.344154 3.200605 3.126675 6.409589 3.755358 9.743205.830572 4.412353.104606 8.466523-1.465531 12.616-1.545032 4.082448-1.905923 4.615533-.555458 8.516795 2.103627 6.074448-2.418493 12.78776-6.597505 17.199066-16.901201 17.835836-49.246441 11.079583-66.194715-3.140909zm42.947064-106.5981826c.067994.1822334.010461.1131104 0 0zm5.263777 45.0116596c-.70086.523659-4.736562 1.621249-4.568146.043987.225949-2.113489 3.863102-1.349994 4.568146-.043987zm9.199057-42.6939436c-.946684-.7058927-3.599494-.4157854-1.660098-3.0916845.631821 1.1771861 1.146483 2.1344353 1.660098 3.0916845zm-63.656972-16.9152429c1.207154-3.1367192 2.54402-6.0545489 3.087971-9.3934006.335786-2.0569337-.331601-4.4060694 2.54402-4.7286435-3.664351-1.5982082-3.702009-7.9062082-3.918543-11.1759369-.297082-4.5034701-1.719724-10.5328833.259423-14.7242524 2.031449-4.3055268 4.772128-4.2343091 5.599562.8933628.324279 2.0077098-.915303 2.6570473-1.148575 4.0552176-.460266 2.7659685.456083 2.159571 2.240662.052366.736427 2.1417665 1.018863 5.3601766 4.016873 5.2240252-.199798-.5791672-1.348372-1.8568959-.964468-2.5764038.588932-1.1049211 3.468737.5833565 3.833812.8389022 2.629797 1.8390915 3.1999 3.5179433 1.324313 5.837754 2.596322.279634.417378 2.5523154 2.093167 3.1450978 2.556572.9038359.842079-3.3786499.564873-4.131672 1.556538.6074448 2.078522 1.3007698 3.063911 2.5303218.578472.8483281 1.105687 1.729123 1.580598 2.6402902.529307 1.663142 1.619302 2.0799748 3.272078 1.2504985 3.311827 1.03894 7.883112.8766056 10.851832 2.6926561 1.355695.8294763 1.845251 2.6444795 2.978135 3.3336152 1.274102.776063 2.981273.424164 4.350566.9111671-.501063 1.1373881-.095192 1.7532114 1.214476 1.8495647 1.017817.0932114 2.003206.3225741 2.956168.687041.712367-.5372744 1.488544-.9614385 2.325392-1.2703975.562781.9918108 1.357787 1.2368833 2.387111.7373123 3.053451.571836 4.521074 1.7270284 6.461516 3.4540568 1.742737 1.5500316.324279 1.6757098 2.233339 1.5385111.766763-.0555079 2.110951-1.3562776 3.865194-1.1028265 1.009449.1968959 1.983331.5079495 2.920602.9331609 1.013632.8671798 2.090029.9761009 3.228143.3278107 1.849435.9038359 2.031449 2.5051861 4.28571 2.7240757 2.493808.2429779 1.69148-2.8654637 3.403881 1.518612 2.305518-4.648 3.150735 2.7565426 5.531569 3.3545615 2.465564.6200126 2.73231-1.3793186 4.84326.805388.632867.6545741.597301 1.7364543 1.307576 2.4308265 1.164265 1.1363407 2.738587.9090726 3.750127 2.4591041-.563826-.8650852.13285 3.0655016.121343 2.9356341.156909 1.7343596-1.383938 3.6771356 1.774119 3.5294637-.035566.1822334-1.552354 2.393123-1.848389 2.1428139-.072178-.2524038-.133896-.5079496-.182015-.7666372-.338923.1455772-.489556 2.251735-.426792 2.6235331.267791.0418927.377628-.1570978.328463-.5969716-.518846 1.6243911.263607 2.656-.733289 4.197653-.638097.9855268-2.383972 1.725981-3.312874 2.3344731-2.238569 1.4683407-4.430066 2.9408708-6.614241 4.5034698-5.093269 3.644669-10.796391 8.039218-17.210835 8.799571 3.221867-3.162902 21.755968-15.1327064 12.459628-18.5689587-1.723908-.6367697-4.863136-1.2400253-6.666544-1.3740821-2.242754-.1665236-4.561871 1.117489-7.034758.3162903-2.985457-.9656278-1.860942-3.7713944-3.684226-4.7778675-3.87147-2.1354827-2.957213 2.8864101-4.175873 4.2018422-1.280379-1.3437097-1.006311-1.9972366-3.0273-2.1187255-2.052371-.1235836-2.540881 1.7731104-4.935314.591735-3.299275-1.6285804-1.5534-4.8721262-6.233475-4.9485804.078455-.7121767.757348-2.7020821-.135988-3.2571609-1.204016 1.561552-.271976 3.3074321-1.389168 4.8103344-.559643.7540694-1.773073 1.3552302-2.659086 1.5992555-2.075385.5697413-2.370374 1.6610473-2.032496-1.4631041-1.537709 2.7701577-6.25335 1.6306751-9.057839 1.3520883-4.559778-.453489-9.406177-1.3164795-13.777664-2.7785363-4.043024-1.3531356-6.202093-3.6771356-9.536935-5.7916719-1.260503-.8001514-1.861988-.4943344-3.66958-.9907634-1.78458-.4901451-3.523132-1.4400631-2.683146-3.6268644zm9.621666-49.0490725c.688308-.4147382 1.183094 5.7738675.348338 6.9301072-1.527249-2.416164-4.2355-5.9602902-.348338-6.9301072zm2.198819-2.46853c2.213464-2.0035205.675755 3.1712808.269884 4.0395079-.820112-.5257539-1.640223-1.0515079-2.460335-1.5772618 1.046061-.6420063 1.307576-1.663142 2.190451-2.4622461zm83.519571-8.3397981c20.452577 4.2919117 40.717909 12.3143723 57.121185 25.5168707 14.94193 12.0253123 25.487267 29.0871798 31.399602 47.236164 6.137237 18.8381194 4.075452 39.7384104-10.525462 54.1557984-7.691684 7.594107-17.848932 12.176126-27.529177 16.647129-4.638233 2.141767-9.414546 3.926398-14.070561 6.01894-3.344256 1.502902-7.427031 3.907546-11.24306 3.490713 1.946719-2.048555 4.771083-2.090448 7.127857-3.343041 2.846331-1.514423 5.171724-4.420732 7.625782-6.496517 2.436275-2.061123 7.840224-8.551357 11.584075-6.980379-.519892-3.457199 3.419572-5.062738 5.194737-7.342751 1.877679-2.411974 2.012621-5.232403 5.471943-6.022082-3.715607-2.907356-2.577493-8.391116-1.769934-12.348933 1.034554-5.061691 1.512603-9.708644 1.920567-14.859357.734334-9.286574 1.326405-21.1160377-3.804522-29.2798863-1.665329-2.6507634-3.784648-5.0868265-5.270054-7.8402271-1.790856-3.3179054-1.395445-6.238877-1.395445-9.8762146-3.273123 2.1993691-3.963523-2.2852492-5.346415-4.4710031-1.037693-1.640101-2.40071-2.5565047-2.735449-4.6197224-.243732-1.5018549 1.38603-1.755306.492695-3.3294259-1.095226.8273817-1.532479 2.1092997-2.086891 3.2990536-1.011541-.4042649.180968-1.8118611-.398549-2.2695394-.016737-.0125678-1.96764-.8598486-1.870357-.7373123-1.255272-1.590877-1.659052-4.2311672-2.274135-6.1247192-2.299242 1.1646183-1.869311 1.0274195-4.434251-.9184985-.451899-.3424731-2.709297-1.9155457-2.921648-2.4297791-.992711-2.4046436.746888-.9802903.260469-2.4727193-1.39649-4.2866751-9.234623-3.4760504-9.855983-9.8992555-3.822305 2.4266372-5.279467-1.0117098-7.538958-3.4571987-2.315979-2.5051862-6.200002-3.4687193-5.991836-7.4422461-1.202969.4115962-2.405939.8221451-3.607863 1.2316467.624499-3.6666625-4.822339-3.4331104-6.795209-5.2931483 1.095225.0136152 2.184174.0994953 3.266847.2576404zm3.115168 227.0995201c1.895462-1.695608 1.320129.560316 2.539836.302675 1.042922-.220984 1.248996-1.009615 2.24903-1.251545 4.121479-.996 10.28173.255545 14.615559.040845 5.018999-.248214 13.622847.793868 16.014142 6.666183 1.441471 3.536795-.757348 2.333426-3.180025 2.070549-1.878725-.20318-3.548237.176997-5.407087.158145-.919487.141388-1.83479.127773-2.746955-.04294-.445622-.293249-.708183-.705893-.789776-1.237931-2.585862-.391697-5.332817 1.138436-8.196931 1.21489-3.822305.10159-7.21991-.631533-10.123774-3.212126-1.154851 1.720744-1.941489 2.574309-4.017919 2.767016-.054395.005236-2.082707-.811672-2.396525-.893363-.415286-.107874-1.466577.764542-2.267859.515281 1.421596-2.264303 1.628716-5.238688 3.708284-7.097679zm261.065346 20.436328c.674709-2.347041 1.238536-4.724454 1.853619-7.087205 9.435467 10.7413 17.692023 25.119937 21.407631 38.895319 2.413261 8.951432 6.169665 25.171256-5.337002 29.787836-9.372703 3.760921-14.598821-9.720164-16.970241-16.360164-5.235533-14.657224-5.235533-30.321968-.954007-45.235786zm-422.137758-168.3061951c.121343-.0240883-6.107948 3.5985868-4.055577.6650473.824296-1.1792807 3.950971-2.0087571 5.338048-2.0087571zm-5.991835 1.5353691c-.720736.6063975-1.448794 1.2054637-2.183128 1.7961514-.705045-1.114347-1.411136-2.228694-2.116181-3.343041 1.390215-.5864984 7.293135-1.0263722 4.299309 1.5468896zm-4.390316 112.637022c-1.303392-.88289-2.3369-.413691-2.728126 1.068265 0-1.474625.767808-4.900404 1.947765-5.299432.762578-.258688-2.534605-4.15995-1.607796-5.181085 2.356775 1.349993.945639 2.643432 1.636039 4.38617.311726.786536 1.247951 1.530133 1.452978 2.134435.347293 1.025325 1.754244 4.551647-.70086 2.891647zm-6.385154-8.778625c-1.334773.341426 1.002126 2.544985 1.000034 3.518991-.002092.736265-.886013 1.301817-1.251089 2.309338-.790821 2.183659.570103 3.658283-1.670558 5.324567 0-4.784151-3.21036-17.460896 2.959305-19.792227-3.009516-2.370082-.537675-5.105678 1.821192-2.269539 2.267859 2.727217.823249 9.966284-2.858884 10.90887zm-3.214544-18.878965c-1.212385-4.30029-4.863136-5.80424-9.034826-5.549741.159001-2.201464 1.827468-5.375887 3.03253-1.407596.495833-1.172997.838941-2.70313 1.968686-3.48024 1.902784 5.965527 11.388462 9.261438 5.482404 15.725489-.482234-1.762637-.951916-3.528417-1.448794-5.287912zm-11.023387-5.229262c-21.967273 1.592972-52.807232 6.150903-70.38628-10.686839-11.461686-10.979041-10.849741-28.076517-1.586874-40.274637 5.285744-6.960479 12.50147-11.861931 19.748578-16.530877 2.79612-1.802435 5.165448-2.992189 8.235635-4.027987.496879-.053414.964468.057602 1.401722.333047.1726-.741502.589978-1.290297 1.255272-1.64848 1.185187-.634675 2.874575-.860895 3.557652-2.1784222-.729104 2.4737662-1.103593 5.0208452-1.371385 7.5804922-.59207-.689136-1.183095-1.378271-1.774119-2.067407-.49374 4.661615-5.3506 1.840139-8.25028 2.422448 1.910107 2.643432 3.276262 3.603823 3.440494 7.097678-1.422643-2.626675-4.397639-4.353703-7.163423-5.199937 1.502143 4.442726 2.563894 7.079874 1.05129 11.952-1.826421-1.043129-1.949857-3.548315-4.165413-4.148429-.584748 2.905262-.688308 6.128909-1.437287 8.94829-5.673833-2.587924-5.120467 4.381981-2.842147 7.830802 1.211338 1.834902 1.806547 3.958864 2.887127 5.720454 2.651764 4.320189.637051-2.140719 3.58485-1.833855-.662156 4.556883-.89229 5.010372 2.442552 8.347129 3.254294 3.254019 4.942636 7.76901 8.423926 10.826133 1.007356-1.288202-.577426-2.636101-.716552-3.868795 3.23965.543558 4.756438 3.791293 7.87056.914309 1.357787 2.646574 2.827502 5.561262 6.079704 6.10482-2.149654-4.086637 4.128802-1.315432 5.738689-.735217 1.221799.439873 3.409111.789678 3.880885.959343 2.652809.958297.83371-.7614 2.443597 2.379508 2.364097-.713224 3.256387-2.674851 6.083889-1.017993 2.299241 1.347899 2.304471 3.656189 2.829594 6.021034.548136-1.546889 1.101502-3.092732 1.707171-4.618675.617175.259735 3.206175 3.108442 2.923739 3.122057 6.058783-.297438 5.844341 3.46453 4.106834 8.278006zm-30.843097-77.1193057c1.216569-.8535646 2.701975.2827761 4.06813-.023041 1.891277-.4220694 2.965582-2.0422713 5.078624-2.2161261-.587886 1.8788895-1.69148 1.70294-2.624566 3.1786119-.318003.502713-.152725 1.7092239-.435161 1.9982839-2.368282 2.42559-3.186301.446158-5.603747-1.3897917.210258 2.2140317.636005 2.9136407-1.44984 3.5074697-1.888139.538322-5.004354-1.444252-5.956269-2.9649587.802328-1.6065868 5.466713-1.068265 6.922829-2.090448zm15.072687-3.4603406c2.051325.1958485-.41947 6.2472553-3.3589.3770347 1.106732-.2408833 2.227063-.3665616 3.3589-.3770347zm10.547429-1.1698549c3.23442-.6598108 14.024535-3.7347382 15.225413 1.3007697.215488-.1256783 1.017816-2.968101 1.39126-2.6214385 1.493775 1.3897918 1.661144 3.2320252 1.547124 5.1622334-1.806547-3.7619684-1.164266-.4576782-2.388157-.7153186-.319048-.0680757-.807558.5288959-1.617209.282776-1.060706-.3236214-1.821192-2.580593-2.490671-3.3451356-1.1151 1.5919243-2.496946 3.6415268-4.730286 3.5032808-1.580597-.0974007-4.127755-4.1672808-2.080614.2880126-1.201924-.3969338-2.593184-1.2955331-3.932142-1.1153943-1.499005.2021324-2.27832 1.6819936-3.683179 1.9207823-3.115169.5278486-3.58485-2.4695773-5.606885-4.0971104 2.788797-.1623344 5.611069-.0020947 8.365346-.5634574zm19.570748-.0481767c.228041-1.0326561 3.058681-1.449489 3.779417-1.1216782 1.759474.7991041 1.108824 1.8537539.785592 3.6090599-1.305484-.617918-2.610968-1.2347886-3.916451-1.8527066 1.948811 3.1377665-1.581644 3.5933501-.648558-.6346751zm547.939098 183.7960379c-.231179-7.519748-.449806-15.169363-2.355728-22.49012-1.334773-5.123483-4.612081-14.310561-10.811036-15.199735-9.348644-1.341615-14.525598 17.13518-17.144934 23.477741-.524076-7.467381-.065902-15.415482-2.886081-22.502687-2.258445-5.679609-7.963659-11.058638-12.877006-4.680467-4.372533 5.676467-5.21252 14.056063-6.363187 20.885628-1.491682 8.849842-2.38711 17.76776-3.476059 26.671015-4.270019-8.251823-5.015861-17.69759-8.391498-26.274082-3.184209-8.092631-8.195885-15.821842-13.023455-23.020063-3.941556-5.879646-8.737744-11.407394-14.913686-15.001792-5.375705-3.12834-14.775606-6.512227-19.899211-1.316479-4.275249 4.334852-3.605771 10.135949-3.38296 15.606095.099376 2.436063.481188 4.106536-1.661144 5.333993-1.052337.603256-2.69779.291155-3.854733.613729-1.86408.520517-3.294045 1.40236-4.870459 2.574309-11.055814 8.217262-16.152221 23.0253-17.728635 36.227798-1.996929 16.727773 4.523166 31.06766 10.135282 46.373174.894381 2.439205 3.734436 7.614006 3.342163 10.337034-.429931 2.983811-4.174828 3.061313-6.70211 3.123105-7.632058.188517-15.609316-.380177-23.20267-1.091306-18.080112-1.69142-36.145579-10.395685-52.334413-18.166789-2.953029-1.418069-7.132041-2.229741-9.542164-4.462625-2.266814-2.098826-2.864114-5.462814-4.820248-7.870599-4.801418-5.907924-7.860099-10.949716-14.930423-14.518978-7.198989-3.634196-14.545472-6.992946-21.569769-10.973804-8.686488-4.924493-16.711865-11.162322-25.036415-16.676455-15.469144-10.24487-30.834728-21.476315-47.235913-30.187911-7.620551-4.048934-16.137577-4.704556-24.049979-8.019319-7.705282-3.227836-17.163762-3.232025-25.20483-1.193943-3.916451.993905-6.581814 3.348277-10.184446 4.884694-4.221901 1.801388-7.665533-.186423-11.380094-2.336568-5.675925-3.284391-11.302685-8.636189-3.219774-12.179268 2.741725-1.202322 6.176988-1.657905 8.572466-3.548316 2.553434-2.013993 4.602667-5.72988 6.679097-8.25287 4.61522-5.608391 7.371589-12.065111 14.127049-15.552682 7.469919-3.857274 16.324822-4.906687 24.289527-7.427583 8.63-2.73036 17.080078-5.977048 25.548984-9.165085 15.258886-5.743496 31.122395-11.944669 42.087203-24.587899 9.457434-10.907824 13.578912-24.986928 13.1971-39.287016-.780361-29.2338046-16.439888-58.9022463-38.908224-77.1800507-27.551144-22.41261829-62.600451-29.88628391-97.401841-29.49458674-16.33319.18432807-35.824438 2.32190536-49.452515 12.24524924-11.77132 8.5712555-13.729546 23.5625741-11.97844 37.0949779.710275 5.4921388 3.139228 12.7395836-.734335 17.5792429-2.167437 2.7073186-6.058783 3.3776025-8.978338 5.0658801-3.669581 2.1208202-6.905046 4.1536656-11.061045 5.2753439-17.653319 4.7673943-36.248092 3.1073943-54.297868 2.84347-30.067966-.4398738-60.888049 7.7009337-83.318727 28.8881894-18.113585 17.107949-23.545778 49.368505-1.454024 66.047053 17.848932 13.473754 45.845698 11.991799 66.891391 9.641616 6.526372-.729981 11.013972-1.789868 11.028617 6.194889.016737 8.72207-1.427872 17.837931.797098 26.400808 3.50535 13.485274 16.462902 13.806801 27.919358 10.902587 6.045184-1.532228 11.888479-3.836329 17.629259-6.249351 8.419742-3.538889 16.137577-8.743015 24.452713-12.275621 5.637221-2.39417 9.858075 5.348656 14.858245-.018852.923672-.991811 1.094179-2.470624 2.487532-2.978574 2.184175-.794915 5.847479 1.993047 7.762816 2.87489 2.868298 1.320668 5.75961 2.291533 6.905046 5.471192 1.072212 2.974385.602531 7.704076-.424701 10.638663-2.231247 6.37817-8.238773 5.117198-13.724315 4.69094-9.566224-.744644-19.068639-2.322953-28.631725-2.985906-8.579789-.594877-16.61458 1.968959-24.015459 6.200126-15.543415 8.886499-28.260373 23.021111-41.737818 34.6453-6.936428 5.982284-13.641677 12.44424-21.18482 17.653603-3.2794 2.26535-6.831821 4.347419-9.682337 7.162612-2.828547 2.792151-3.139227 5.330851-4.106834 9.046738-1.722861 6.615911-10.278591 9.850031-15.627099 13.340744-7.563018 4.936013-15.581073 8.418347-24.059394 11.447193-17.95563 6.413779-36.052479 10.892113-54.824036 14.202687-9.190689 1.62125-18.305015 2.686373-27.585664 3.561931-7.999226.754069-16.505791 3.217363-24.495602 1.249451 2.301334-3.732643 6.378878-5.973905 9.554718-8.859268 4.094281-3.719028 7.576617-8.126145 10.675048-12.692454 6.031586-8.891735 10.261855-18.432808 11.233645-29.218095.875553-9.706549-.128665-21.31817-5.985559-29.517628-2.023081-2.832997-6.025309-3.603823-7.83604-6.155091-1.80027-2.536606-1.114054-6.902877-2.099443-9.860505-2.5095-7.521842-9.956405-16.842978-16.509975-21.211344-7.110074-4.741211-17.511054-6.482902-25.7247222-4.012277-15.2159976 4.576782-24.5625491 20.837451-31.5251285 33.980252-3.8034763-8.003609 2.5659867-19.87706-4.8641818-26.43118-6.2669491-5.528795-11.2409673 5.181085-13.3372727 9.763104-9.8392461 21.508783-12.0736315 44.321477-16.1961564 67.335256-1.6799733-1.655811-.8190654-5.90583-.6611103-7.881073.293943-3.677135.2667455-7.284101.2740679-10.976946.0198751-9.328467 1.7542436-18.699874.9592376-28.019962-.4592206-5.387407-2.1768522-16.747672-10.0045237-14.957805-6.6383006 1.518612-10.79639148 10.853363-12.88223633 16.560202-3.0084703 8.231925-3.70305455 16.381111-3.5158097 25.076997.20712 9.608101-1.62348606 19.059104-2.06701576 28.65359-.86195394 18.637035-.0104606 37.112782 5.33700122 55.099432 8.75657337 29.453741 28.89010177 53.926435 55.76130667 68.704101 14.8048958 8.142902 31.2290933 13.294663 48.11565 14.402726 9.150938.600113 17.98492-.489098 27.057403-1.434827 8.953233-.934208 17.953539-1.365703 26.89108-2.461199 19.904442-2.441299 39.299451-8.743015 57.391069-17.222107 9.523336-4.463672 18.478661-9.943243 27.846134-14.702259 3.758496-1.908214 6.298331-4.297148 9.505552-6.9521 3.180025-2.630865 4.060808-2.837187 7.677039-2.837187-1.060705-2.838233 2.035634-3.712744 3.413296-5.508895-.077408.871369-.154817 1.74169-.232225 2.612012 1.050244-2.277918 2.028311-2.255924 2.933154.065981.894381-2.600492 1.556538-5.274296 2.636072-7.808807 4.128801 2.0894 3.781509 7.056832 9.302617 3.429968 4.547226-2.984858 8.72833-6.505943 13.363424-9.431104 10.558936-6.665136 19.662802-15.336934 30.252073-21.925615 0 6.416921.452944 12.88935-.404825 19.273804-.815928 6.070259-3.082741 11.744631-4.885103 17.556202-3.324381 10.722448-3.554514 22.181161-7.237694 32.795735-1.52411 4.395596-5.49391 8.071685-6.632024 12.351029-1.160081 4.365224 1.519926 7.863268-2.972904 10.729779-3.167472 2.020277-7.126811 2.873842-10.634252 4.096063-5.3506 1.865274-10.430271 4.497186-15.638606 6.729022-24.4297 10.467949-48.25896 21.128606-70.892574 35.20352-21.479808 13.356455-43.28808 27.150688-63.019921 43.013376-17.125058 13.767003-34.436315 31.56723-38.604867 54.024883-4.045116 21.78318 6.732447 45.164568 28.373348 52.3387 11.252474 3.730549 23.973617 3.268682 35.691588 3.429969 12.609215.173855 25.970547-2.864417 38.367411-5.063786 13.092495-2.321905 25.960086-5.956101 39.090239-8.029791 12.597708-1.989906 24.152493-6.436821 36.544127-9.177653 13.198147-2.918877 26.735217-4.502423 40.005542-7.128051 5.975098-1.182423 11.828853-2.926208 17.819642-4.020656 6.5588-1.198133 13.189779-1.647432 19.684769-3.23412 12.597708-3.079117 24.659833-8.04236 37.312982-10.906776 5.688477-1.288202 11.290132-3.013136 16.980702-4.216505 5.239717-1.108063 9.321446-4.053123 14.57267-1.634864 4.241776 1.954297 7.625782 5.304669 11.640562 7.638095 5.20729 3.027798 10.697016 5.739306 16.126071 8.343987 10.90832 5.234498 22.221465 8.851937 33.626664 12.781476 11.980532 4.12853 23.745576 8.836227 36.157085 11.562398 12.724281 2.794246 25.704847 3.572404 38.516997 5.783293 26.239385 4.526511 52.255958 6.558309 78.890753 6.722738 13.4628.084833 26.923508-1.51128 40.354926-1.322763 11.890571.167571 22.227742 2.847659 33.100496-3.473956 17.372974-10.100341 37.524286-25.314738 37.097493-47.413161-.388088-20.015306-12.394772-39.138296-23.655614-54.92453-13.676197-19.171167-33.174766-32.671104-52.285248-45.895596-20.367846-14.092719-43.245191-23.830688-64.651775-36.132492-10.948071-6.291243-21.044648-13.060063-32.93208-17.531066-5.674879-2.133388-11.210632-4.607155-16.818563-6.904972-4.512705-1.848517-11.028617-2.869653-14.890673-5.937249-2.410123-1.913451-2.641303-4.811382-3.277307-7.656946-1.41009-6.29648-3.6246-12.268291-5.771117-18.340644-4.144492-11.725779-6.89877-23.668353-8.680211-35.965968-1.697756-11.723685-5.466712-23.915521-3.514763-35.829818 12.839348 12.419105 26.032264 24.357489 39.168693 36.447735 4.922761 4.530701 9.754515 9.156707 14.703428 13.660177 3.714561 3.380745 8.361162 8.402637 13.540208 9.405969 6.613195 1.281918 4.197842-6.03465 8.738791-7.167849 2.775198-.692278 11.145775 6.359319 13.340411 7.752252 13.908421 8.829944 29.309572 14.425767 44.607162 20.436328 16.041339 6.301717 32.538761 11.899635 49.799807 13.486322 15.944056 1.467294 32.247957-.415785 47.634462-4.759016 30.641207-8.650851 53.189044-29.176201 69.736676-55.782283 18.855243-30.31778 32.575374-65.833401 31.465503-102.024543z"/><path d="m394.52126 210.472296c-.005.009-.052.109-.052.109.058-.04.075-.076.052-.109"/><path d="m396.000207 210.86391c-.114628-.96598-.362764-1.91134-.743059-2.837114-1.01412 1.608248-1.921704 2.296908-.589322 4 .443677-.387628.887355-.775257 1.332381-1.162886"/><path d="m466.657715 440.705317c1.13452-1.207072-.849855-1.662264-1.603441-1.678521.074531 1.295469-.56726 4.399513 1.20491 5-.425445-1.171509-.291911-2.279008.398531-3.321479"/><path d="m436.726527 188.069907c-1.949913 3.765682 2.357232 4.933838 4.851283 3.114733 1.876804-1.367724 2.985967-4.854428 3.294068-7.091477.997411-7.238804-4.067976-14.128623-6.593359-20.55139-.652756-1.660285-1.54677-7.353738-3.648123-7.510467-2.414675-.179717-2.593269 5.064446-2.624601 6.417542-.092952 4.080186.986967 8.235601 2.253836 12.086962 1.363999 4.152282 4.744753 9.136273 2.466896 13.534097"/><path d="m446.000891 172.966923c7.495263 6.674106 13.490852-4.441871 12.967468-11.01736-.12955-1.629234-1.230209-7.635621-4.319725-5.449613-1.552531 1.098141-.229045 4.666841-.969037 6.233412-3.584916 7.596585-7.037172-4.186083-9.450954-5.111644-2.937165-1.126904-3.232539 2.732511-3.228477 4.795248.007338 4.094657 1.955775 7.837991 5.000725 10.549957"/><path d="m418.792921 174.003491c1.76537-2.78012 3.936184-6.508827 4.175861-9.839467.372712-5.176996-2.643832-4.74505-5.127175-1.132799-1.753756 2.551444-3.069337 6.87937-6.941114 5.80374-4.779803-1.326538-3.319571-7.753847-5.995078-10.808169-6.757397 9.076152 6.029921 28.347491 13.887506 15.976695"/><path d="m428.920241 201.779205c2.795434.604068 10.081612.38115 7.5569-3.898075-3.183774-5.390829-13.772357 2.553603-7.5569 3.898075"/><path d="m526.831499 41.0267964c.511372-1.5235257-.191493-1.8001882-1.411171-3-1.155485 1.0661857.324232 2.1878921 1.411171 3"/><path d="m578.961163 316.976036c1.844121.292962 2.437674-.682152 1.779415-2.92641-2.90928-.188179-3.501589.786934-1.779415 2.92641"/><path d="m478.276656 81.5767806c2.033558.9299136 1.254517 2.8376334 1.219699 4.4500158 1.047789-1.1384458 3.164038-3.219776 2.302306-4.8551069-1.327416-2.521343-4.796107-.1766038-3.522005.4050911"/><path d="m409.000207 49.8415347c-.309897-.6049128-.619795-1.2098256-.929692-1.8147383-1.263236 1.0135445-3.213473 3.6937557-1.205986 5 .822659-.9986226 1.534552-2.0603765 2.135678-3.1852617"/><path d="m433.402524 67.6306431c2.530277 1.9844353 1.31664-4.1063949 1.240507-4.6038467-.376182.7144826-2.518633 3.6014222-1.240507 4.6038467"/><path d="m432.000207 64.5375117c-.193412-.5032007-.387749-1.0064014-.581161-1.5107153-1.025361.9496242-2.282075 2.8889507-.587639 4 .464559-.7781798.854159-1.6075703 1.1688-2.4892847"/><path d="m448.070946 85.4535054c.206857.190779.413714.3815581.619724.573291.83421-1.6836248-.11445-2.9484897-1.690463-3 .111906.94531.468819 1.754213 1.070739 2.426709"/><path d="m380.264986 274.860518c1.004068-.683215 1.915436-1.462688 2.735221-2.33737-2.970881-1.816328-1.190586 2.119745-4.766813-.297142-.770642 1.065105.488074 3.448511 2.031592 2.634512"/><path d="m505.102531 440.026796c1.129947-1.733618 1.333557-1.684227-.209113-3-1.286782 2.142575-1.153793 1.592361.209113 3"/><path d="m269.000207 164.10331c.614987.6415 1.229975 1.283 1.844962 1.923486.287068-.839118 1.852691-3.210539.789436-4-.877765.692172-1.756633 1.384343-2.634398 2.076514"/><path d="m290.873777 170.448864c-.9818-.163905-3.330074-.880196-3.87357.0326 1.436603 1.177216 4.677985.102327 3.87357-.0326"/></g></g></g></svg>